<?xml version="1.0" encoding="UTF-8"?>
<svg version="1.1" xmlns="http://www.w3.org/2000/svg" width="2028" height="4074">
<path d="M0 0 C2.91696199 1.29881612 4.7864651 2.58790405 6.84765625 5.01953125 C7.62326904 5.92469482 7.62326904 5.92469482 8.41455078 6.84814453 C8.95837402 7.49638184 9.50219727 8.14461914 10.0625 8.8125 C10.63468262 9.48394043 11.20686523 10.15538086 11.79638672 10.84716797 C13.53722891 12.89286255 15.26909339 14.94589714 17 17 C17.96950368 18.14239272 18.93952 19.28435067 19.91015625 20.42578125 C21.70605196 22.53967023 23.49583384 24.65850471 25.28125 26.78125 C27.20409068 29.06497574 29.14406979 31.33289889 31.09375 33.59375 C31.60083496 34.18462402 32.10791992 34.77549805 32.63037109 35.38427734 C33.60370493 36.51787262 34.58043064 37.64856715 35.56103516 38.77587891 C37.62720386 41.19009819 38.98359388 42.95078164 40 46 C31.75 46 23.5 46 15 46 C15 695.77 15 1345.54 15 2015 C329.16 2015 643.32 2015 967 2015 C967 2006.75 967 1998.5 967 1990 C970.01571923 1991.50785961 971.77241757 1992.49127707 974.1796875 1994.6171875 C975.06769043 1995.39497559 975.06769043 1995.39497559 975.97363281 1996.18847656 C976.60108398 1996.7450293 977.22853516 1997.30158203 977.875 1997.875 C979.2210585 1999.05502485 980.56741969 2000.23470451 981.9140625 2001.4140625 C982.9354834 2002.3117334 982.9354834 2002.3117334 983.97753906 2003.22753906 C987.05144578 2005.92147469 990.14825547 2008.5882131 993.25 2011.25 C993.82113525 2011.74298584 994.39227051 2012.23597168 994.98071289 2012.74389648 C997.70382166 2015.08362277 1000.44821856 2017.37339633 1003.28515625 2019.57421875 C1004.28417969 2020.35410156 1005.28320312 2021.13398437 1006.3125 2021.9375 C1007.19550781 2022.60652344 1008.07851562 2023.27554687 1008.98828125 2023.96484375 C1011 2026 1011 2026 1012.08984375 2028.45703125 C1012 2031 1012 2031 1010.078125 2033.359375 C1009.14484375 2034.14828125 1008.2115625 2034.9371875 1007.25 2035.75 C1006.74629883 2036.1833667 1006.24259766 2036.6167334 1005.72363281 2037.06323242 C1004.16451303 2038.39528413 1002.58649551 2039.70073211 1001 2041 C1000.1234375 2041.72316406 999.246875 2042.44632813 998.34375 2043.19140625 C996.57889994 2044.6346496 994.80916551 2046.07193619 993.03515625 2047.50390625 C988.71949731 2051.0530775 984.51135004 2054.72189628 980.30175781 2058.39575195 C978.53781225 2059.93435701 976.76941038 2061.46768557 975 2063 C974.43490723 2063.49564453 973.86981445 2063.99128906 973.28759766 2064.50195312 C969.22745253 2068 969.22745253 2068 967 2068 C967 2059.75 967 2051.5 967 2043 C652.84 2043 338.68 2043 15 2043 C15 2713.23 15 3383.46 15 4074 C5.76 4074 -3.48 4074 -13 4074 C-13 3403.77 -13 2733.54 -13 2043 C-343.99 2043 -674.98 2043 -1016 2043 C-1016 2033.76 -1016 2024.52 -1016 2015 C-685.01 2015 -354.02 2015 -13 2015 C-13 1365.23 -13 715.46 -13 46 C-21.25 46 -29.5 46 -38 46 C-35.98755977 41.97511954 -33.5590658 38.96780063 -30.625 35.625 C-29.53769304 34.37115218 -28.45045543 33.11724421 -27.36328125 31.86328125 C-26.80592285 31.22342285 -26.24856445 30.58356445 -25.67431641 29.92431641 C-23.04107116 26.89788902 -20.42521341 23.85665518 -17.8125 20.8125 C-17.06939575 19.94782104 -17.06939575 19.94782104 -16.3112793 19.06567383 C-12.4073774 14.50929122 -8.6027239 9.88085073 -4.83984375 5.20703125 C-3.30131854 3.3614543 -1.73457829 1.6589269 0 0 Z M1 2025 C1 2026.32 1 2027.64 1 2029 C2.32 2029 3.64 2029 5 2029 C5 2027.68 5 2026.36 5 2025 C3.68 2025 2.36 2025 1 2025 Z " fill="#00FE00" transform="translate(1016,0)"/>
<path d="M0 0 C6.27 0 12.54 0 19 0 C19 4.62 19 9.24 19 14 C21.97 14 24.94 14 28 14 C28 684.23 28 1354.46 28 2045 C18.76 2045 9.52 2045 0 2045 C0 1370.15 0 695.3 0 0 Z " fill="#00FE00" transform="translate(1003,2029)"/>
<path d="M0 0 C3.01571923 1.50785961 4.77241757 2.49127707 7.1796875 4.6171875 C7.77168945 5.13571289 8.36369141 5.65423828 8.97363281 6.18847656 C9.60108398 6.7450293 10.22853516 7.30158203 10.875 7.875 C12.2210585 9.05502485 13.56741969 10.23470451 14.9140625 11.4140625 C15.59500977 12.01250977 16.27595703 12.61095703 16.97753906 13.22753906 C20.05144578 15.92147469 23.14825547 18.5882131 26.25 21.25 C27.10670288 21.98947876 27.10670288 21.98947876 27.98071289 22.74389648 C30.70382166 25.08362277 33.44821856 27.37339633 36.28515625 29.57421875 C37.28417969 30.35410156 38.28320312 31.13398437 39.3125 31.9375 C40.19550781 32.60652344 41.07851562 33.27554687 41.98828125 33.96484375 C44 36 44 36 45.08984375 38.45703125 C45 41 45 41 43.078125 43.359375 C42.14484375 44.14828125 41.2115625 44.9371875 40.25 45.75 C39.74629883 46.1833667 39.24259766 46.6167334 38.72363281 47.06323242 C37.16451303 48.39528413 35.58649551 49.70073211 34 51 C32.68515625 52.08474609 32.68515625 52.08474609 31.34375 53.19140625 C29.57889994 54.6346496 27.80916551 56.07193619 26.03515625 57.50390625 C21.71949731 61.0530775 17.51135004 64.72189628 13.30175781 68.39575195 C11.53781225 69.93435701 9.76941038 71.46768557 8 73 C7.43490723 73.49564453 6.86981445 73.99128906 6.28759766 74.50195312 C2.22745253 78 2.22745253 78 0 78 C0 69.75 0 61.5 0 53 C-317.13 53 -634.26 53 -961 53 C-961.33 47.06 -961.66 41.12 -962 35 C-961 34 -961 34 -958.93359375 33.90234375 C-955.46679688 33.95117188 -955.46679688 33.95117188 -952 34 C-952 31.03 -952 28.06 -952 25 C-637.84 25 -323.68 25 0 25 C0 16.75 0 8.5 0 0 Z " fill="#FE0000" transform="translate(1983,1990)"/>
<path d="M0 0 C330.99 0 661.98 0 1003 0 C1003 2.97 1003 5.94 1003 9 C1007.62 9 1012.24 9 1017 9 C1017 10.65 1017 12.3 1017 14 C1012.38 14 1007.76 14 1003 14 C1003 18.62 1003 23.24 1003 28 C672.01 28 341.02 28 0 28 C0 18.76 0 9.52 0 0 Z " fill="#FE0000" transform="translate(0,2015)"/>
<path d="M0 0 C2.29623408 3.58212516 2.29974589 6.37960112 1.5625 10.4375 C0.5538215 13.59965474 -0.52174584 16.72158979 -1.64697266 19.84326172 C-3.44571421 24.99048973 -3.91067232 29.04333559 -3.4375 34.4375 C-0.33485523 35.41261693 1.09378717 35.64565731 4.11328125 34.3046875 C7.15030184 31.98938312 7.59018393 30.53520903 8.5625 26.875 C9.04203125 25.15990234 9.04203125 25.15990234 9.53125 23.41015625 C10.08110243 21.31438084 10.61922009 19.21579722 11.15625 17.11669922 C11.57428266 15.48931114 11.9974975 13.86324577 12.42578125 12.23852539 C12.84430017 10.64388487 13.24841091 9.04538035 13.63671875 7.44311523 C14.52054995 4.05348912 15.09098338 1.93036482 17.546875 -0.63671875 C19.5625 -1.5625 19.5625 -1.5625 22.3125 -0.75 C23.42625 -0.1621875 23.42625 -0.1621875 24.5625 0.4375 C24.11455911 8.60597831 22.36592336 16.40524513 20.39868164 24.31445312 C19.87688494 26.42985829 19.38057986 28.55025129 18.88476562 30.671875 C16.362833 41.09751003 13.08531638 51.07510276 3.76171875 57.30859375 C-1.96738996 60.24946838 -7.23338904 61.12218758 -13.4375 59.25 C-16.79973496 58.03118983 -17.34444613 57.57708081 -19.4375 54.4375 C-19.76244847 50.86306678 -19.81823056 48.31094069 -18.375 45 C-16.4375 43.4375 -16.4375 43.4375 -12.875 43.0625 C-9.4375 43.4375 -9.4375 43.4375 -7.4375 45.4375 C-8.01442308 52.01442308 -8.01442308 52.01442308 -9.4375 53.4375 C-6.28610126 53.79765986 -4.71547122 53.59733345 -1.9375 52 C1.41440243 48.5643 3.42073171 44.70280876 5.5625 40.4375 C4.5725 40.9325 4.5725 40.9325 3.5625 41.4375 C-1.44364007 41.98673479 -5.35863784 41.95766569 -9.9375 39.75 C-13.03583499 36.88404014 -14.27473024 34.40091027 -14.625 30.17578125 C-13.90034926 20.80061233 -10.59742731 12.22151811 -7.4375 3.4375 C-11.39946187 5.46775907 -13.12560172 6.97375994 -14.75 11.125 C-15.23919922 12.33736328 -15.23919922 12.33736328 -15.73828125 13.57421875 C-15.96902344 14.18910156 -16.19976563 14.80398437 -16.4375 15.4375 C-18.0875 15.1075 -19.7375 14.7775 -21.4375 14.4375 C-21.16916298 7.99741164 -18.89125053 4.07546893 -14.4375 -0.5625 C-9.70504971 -3.59612198 -4.67418412 -2.99627187 0 0 Z " fill="#00F900" transform="translate(887.4375,109.5625)"/>
<path d="M0 0 C0.99 0.7115625 0.99 0.7115625 2 1.4375 C2.515625 0.963125 3.03125 0.48875 3.5625 0 C6.78371143 -2.06487912 9.18938472 -2.4287942 13 -2.5625 C15.92346557 -1.19821607 17.72750909 0.16500909 20 2.4375 C20.66815145 9.34173163 20.66815145 9.34173163 18.4375 13 C15.01492921 15.01843918 12.77265569 14.30811285 9 13.4375 C8.375 10.625 8.375 10.625 8 7.4375 C8.66 6.4475 9.32 5.4575 10 4.4375 C8.00558709 5.00933967 8.00558709 5.00933967 6 6.4375 C4.70648499 9.2466069 4.70648499 9.2466069 3.875 12.5625 C3.54757812 13.73425781 3.22015625 14.90601562 2.8828125 16.11328125 C2.59148437 17.21027344 2.30015625 18.30726563 2 19.4375 C1.77054688 20.21480469 1.54109375 20.99210937 1.3046875 21.79296875 C-0.02282316 26.47665074 -0.17206504 30.61967902 0 35.4375 C5.18900889 35.16845269 5.18900889 35.16845269 9.25 32.1875 C10.87934618 29.62709887 12.49419244 27.07266323 14 24.4375 C15.65 24.7675 17.3 25.0975 19 25.4375 C17.60661727 31.8383519 15.44289078 36.02701439 10.2421875 40.11328125 C6.5369763 42.30155058 3.26872731 42.98496243 -1 42.4375 C-3.87318688 41.39531241 -6.42277071 40.07372459 -9 38.4375 C-10.2375 39.4584375 -10.2375 39.4584375 -11.5 40.5 C-14.82898618 42.708806 -17.28471417 42.85254518 -21.1640625 42.109375 C-24.28873568 40.96587758 -25.46367348 39.31811222 -27 36.4375 C-27.48701495 33.02839535 -27.3863876 31.18993901 -25.8125 28.125 C-23.50481797 25.97646846 -22.14666775 25.51424799 -19 25.4375 C-16.6875 26.5625 -16.6875 26.5625 -15 28.4375 C-14.625 31 -14.625 31 -15 33.4375 C-15.66 34.0975 -16.32 34.7575 -17 35.4375 C-14.99965187 35.02627404 -14.99965187 35.02627404 -13 33.4375 C-11.7540271 30.76600353 -11.05218699 27.97196246 -10.3125 25.125 C-10.10044922 24.36509766 -9.88839844 23.60519531 -9.66992188 22.82226562 C-7.94598178 16.56278596 -6.87177425 10.97701346 -7 4.4375 C-12.18900889 4.70654731 -12.18900889 4.70654731 -16.25 7.6875 C-18.02956011 10.40634205 -18.02956011 10.40634205 -19.5 13.25 C-19.995 13.971875 -20.49 14.69375 -21 15.4375 C-22.32 15.4375 -23.64 15.4375 -25 15.4375 C-24.79282365 9.53297394 -23.86571261 6.21652716 -19.734375 1.91796875 C-13.51603579 -3.39002801 -7.10662527 -3.70136733 0 0 Z " fill="#F70000" transform="translate(1973,2137.5625)"/>
<path d="M0 0 C5.12128577 3.30038416 7.3050725 6.9962883 8.8125 12.8125 C9.12240458 16.4408746 9.13718174 20.04759653 9.125 23.6875 C9.14111328 24.64269531 9.15722656 25.59789063 9.17382812 26.58203125 C9.1789492 34.04855338 8.30517496 39.88360692 3.3125 45.75 C-0.59886094 48.97687277 -4.02418849 49.16519175 -8.90625 49.0859375 C-12.55846829 48.64817161 -14.49163546 47.25758644 -17.1875 44.8125 C-23.61540476 35.93292644 -23.02435438 25.31324198 -22.1875 14.8125 C-21.06952335 9.28337634 -19.58359219 5.24264322 -15.625 1.1875 C-10.40101226 -1.75936488 -5.63573714 -2.09958834 0 0 Z M-13.1875 8.8125 C-13.7826449 12.10624006 -13.7826449 12.10624006 -13.68359375 15.6875 C-13.68423828 17.00234375 -13.68488281 18.3171875 -13.68554688 19.671875 C-13.67515381 20.35185547 -13.66476074 21.03183594 -13.65405273 21.73242188 C-13.62507956 23.80680345 -13.63345732 25.87862762 -13.64648438 27.953125 C-13.8190024 36.41987255 -13.8190024 36.41987255 -10.1875 43.8125 C-7.79398505 44.97460219 -7.79398505 44.97460219 -5.1875 44.8125 C-2.99299925 43.75504985 -2.99299925 43.75504985 -1.1875 41.8125 C0.99808096 34.46193764 1.18413631 26.43703857 0.8125 18.8125 C0.78285156 17.84828125 0.75320312 16.8840625 0.72265625 15.890625 C0.44352501 10.19059716 0.44352501 10.19059716 -1.9375 5.125 C-7.43316182 1.91919727 -9.94781585 3.8105863 -13.1875 8.8125 Z " fill="#F8F8F8" transform="translate(242.1875,2131.1875)"/>
<path d="M0 0 C4.68570162 3.38630537 6.39367168 7.21322989 7.61328125 12.7734375 C9.06523904 23.47345073 9.46970955 35.40863869 2.734375 44.46875 C-0.6850639 47.64962339 -3.22956479 48.93122063 -7.9375 48.99609375 C-12.71163566 48.64611012 -15.53433689 47.48521777 -18.953125 43.96875 C-24.93279457 36.43879573 -24.63387982 25.20616607 -23.640625 16.10546875 C-22.80087271 10.5646032 -21.86704228 6.19166075 -17.953125 1.96875 C-12.10422265 -2.29444993 -6.5273416 -3.44643637 0 0 Z M-12.265625 4.59375 C-16.00531938 9.85702357 -15.13652978 16.6435913 -15.140625 22.84375 C-15.15287109 23.81183594 -15.16511719 24.77992188 -15.17773438 25.77734375 C-15.19029927 31.93414252 -15.05924366 37.59896015 -11.703125 42.96875 C-9.85426293 44.20304987 -9.85426293 44.20304987 -6.953125 44.09375 C-3.7271687 43.23749397 -3.7271687 43.23749397 -2.2890625 40.21484375 C-0.11865331 34.66540536 -0.51915338 28.77392665 -0.578125 22.90625 C-0.56652344 21.74802734 -0.55492187 20.58980469 -0.54296875 19.39648438 C-0.48872266 11.21880029 -0.48872266 11.21880029 -3.953125 3.96875 C-7.58945737 2.57611207 -9.03904032 2.32642022 -12.265625 4.59375 Z " fill="#F7F7F7" transform="translate(751.953125,2131.03125)"/>
<path d="M0 0 C5.42048011 2.99468109 7.63377925 6.7674859 9.41333008 12.52978516 C10.35926011 16.51268987 10.48986054 20.35753342 10.4375 24.4375 C10.42992676 25.26717285 10.42235352 26.0968457 10.41455078 26.95166016 C10.20677099 34.68501174 8.98574173 41.4678011 3.25 47.0625 C-0.61630233 49.36741101 -3.50961967 50.29530548 -8 50 C-13.20205561 48.43938332 -16.10666454 46.60790462 -19 42 C-21.4927874 36.33048352 -21.3672065 30.77032633 -21.375 24.6875 C-21.39949219 23.69298828 -21.42398437 22.69847656 -21.44921875 21.67382812 C-21.47517631 15.08493336 -20.62166004 9.62176084 -17 4 C-11.57786165 -0.42623539 -6.82831078 -1.99211269 0 0 Z M-10.25 6 C-15.26910524 14.60418041 -14.4152627 30.49996672 -12 40 C-10.44994558 43.10857016 -10.44994558 43.10857016 -8 45 C-5.45672892 45.66685938 -5.45672892 45.66685938 -3 45 C-0.4951889 43.12139167 -0.01299375 42.03898126 1 39 C1.22664835 34.88804956 1.22825255 30.77595528 1.24023438 26.65820312 C1.24993322 24.63890274 1.28096756 22.62062388 1.3125 20.6015625 C1.31765625 19.3228125 1.3228125 18.0440625 1.328125 16.7265625 C1.3374707 15.55689941 1.34681641 14.38723633 1.35644531 13.18212891 C0.93138554 9.38745145 -0.28080068 6.71919932 -3 4 C-6.46471467 3.43815438 -7.58744795 3.63328707 -10.25 6 Z " fill="#F7F7F7" transform="translate(1504,2130)"/>
<path d="M0 0 C4.55992249 3.92659992 6.94433627 10.03843492 7.41113281 15.99291992 C7.45703363 18.37042191 7.48526471 20.74709232 7.5 23.125 C7.520625 23.93775391 7.54125 24.75050781 7.5625 25.58789062 C7.60188893 31.77687625 7.09565556 38.74456827 2.79760742 43.56713867 C-1.69046601 47.38693491 -4.70281285 48.30821679 -10.43359375 48.20703125 C-14.1511926 47.77446073 -16.03135048 46.4664763 -18.75 43.9375 C-24.94326748 34.25059446 -24.8348918 22.90996175 -23.32421875 11.80859375 C-21.83129586 5.80942507 -19.02144976 2.18423383 -13.75 -1.0625 C-8.97636374 -2.65371209 -4.58975634 -1.77331495 0 0 Z M-13.75 5.9375 C-15.5456777 11.32453309 -14.9773489 17.11270795 -15 22.75 C-15.020625 24.02166016 -15.04125 25.29332031 -15.0625 26.60351562 C-15.06765625 27.83392578 -15.0728125 29.06433594 -15.078125 30.33203125 C-15.0874707 31.45456299 -15.09681641 32.57709473 -15.10644531 33.73364258 C-14.69934567 37.39279913 -13.64013491 39.79623451 -11.75 42.9375 C-9.92576488 44.18524386 -9.92576488 44.18524386 -7.75 43.9375 C-5.01816301 42.78175989 -5.01816301 42.78175989 -2.75 40.9375 C-1.05873807 35.86371422 -1.4852955 30.47870723 -1.45483398 25.16845703 C-1.44330662 23.76796369 -1.4228423 22.36751455 -1.39331055 20.96728516 C-1.35054326 18.93882542 -1.33445536 16.9116676 -1.32421875 14.8828125 C-1.30234497 13.06547607 -1.30234497 13.06547607 -1.2800293 11.21142578 C-1.83888053 7.31833747 -2.9691746 5.67091231 -5.75 2.9375 C-9.58468594 2.1892686 -11.42906162 2.80423319 -13.75 5.9375 Z " fill="#F8F8F8" transform="translate(870.75,987.0625)"/>
<path d="M0 0 C5.61416316 4.52868047 6.98789573 8.73683094 8.00390625 15.765625 C8.58239152 25.77787009 8.64171867 35.13288319 3.06640625 43.765625 C-0.32455901 47.05383374 -3.16775638 48.06736429 -7.87109375 48.140625 C-12.70996044 48.00542137 -15.43138438 47.24546033 -18.99609375 43.765625 C-24.87355732 33.80606454 -25.24984065 22.55597107 -22.80859375 11.453125 C-21.39377861 6.35582372 -19.97076013 3.27812087 -15.99609375 -0.234375 C-10.73850648 -2.92158627 -5.07172695 -3.13633212 0 0 Z M-12.30859375 4.390625 C-16.04828813 9.65389857 -15.17949853 16.4404663 -15.18359375 22.640625 C-15.19583984 23.60871094 -15.20808594 24.57679688 -15.22070312 25.57421875 C-15.23326802 31.73101752 -15.10221241 37.39583515 -11.74609375 42.765625 C-9.89723168 43.99992487 -9.89723168 43.99992487 -6.99609375 43.890625 C-3.77013745 43.03436897 -3.77013745 43.03436897 -2.33203125 40.01171875 C-0.16162206 34.46228036 -0.56212213 28.57080165 -0.62109375 22.703125 C-0.60949219 21.54490234 -0.59789062 20.38667969 -0.5859375 19.19335938 C-0.53169141 11.01567529 -0.53169141 11.01567529 -3.99609375 3.765625 C-7.63242612 2.37298707 -9.08200907 2.12329522 -12.30859375 4.390625 Z " fill="#F8F8F8" transform="translate(896.99609375,3021.234375)"/>
<path d="M0 0 C4.87785413 3.39328983 7.66047601 8.21311176 8.875 14 C9.11709555 17.22610661 9.10604427 20.45317828 9.125 23.6875 C9.145625 24.54794922 9.16625 25.40839844 9.1875 26.29492188 C9.22553848 32.60455421 8.81952632 39.70009128 4.42260742 44.62768555 C-0.06297713 48.45080469 -3.07833644 49.37070754 -8.80859375 49.26953125 C-12.5261926 48.83696073 -14.40635048 47.5289763 -17.125 45 C-23.26621816 35.57165546 -23.36759046 23.74906807 -21.62890625 12.90625 C-20.00572182 6.81701577 -17.46550972 3.33835681 -12.25 -0.3125 C-7.950088 -1.703648 -4.25838483 -1.36268315 0 0 Z M-10.9375 5.3125 C-14.59702056 10.51287132 -13.35074507 17.81733052 -13.375 23.875 C-13.395625 25.15503906 -13.41625 26.43507813 -13.4375 27.75390625 C-13.44265625 28.98753906 -13.4478125 30.22117187 -13.453125 31.4921875 C-13.4624707 32.61995605 -13.47181641 33.74772461 -13.48144531 34.90966797 C-13.08142223 38.37781327 -12.22152259 40.23176996 -10.125 43 C-7.55400598 44.34689915 -7.55400598 44.34689915 -5.125 45 C-2.56046354 42.96803501 -0.46022053 41.27321145 0.39746094 38.015625 C0.63166302 35.66735876 0.72286799 33.35978336 0.75 31 C0.77481445 30.16073975 0.79962891 29.32147949 0.82519531 28.45678711 C1.62149922 16.65283136 1.62149922 16.65283136 -1.484375 5.6796875 C-3.0908317 3.69499995 -3.0908317 3.69499995 -6.125 3.5625 C-9.08481043 3.75746512 -9.08481043 3.75746512 -10.9375 5.3125 Z " fill="#F7F7F7" transform="translate(1741.125,2131)"/>
<path d="M0 0 C6.47675078 4.03269388 7.97184628 8.7939166 9.6875 15.8125 C10.61084545 25.23062361 10.75277216 34.95325104 6.125 43.4375 C2.87394887 47.35788519 1.24199063 48.71495297 -3.8125 49.875 C-8.19735703 50.26694253 -11.16199817 49.21423182 -15 47 C-21.39743435 40.60256565 -21.36406438 33.22275368 -21.375 24.6875 C-21.39949219 23.69298828 -21.42398437 22.69847656 -21.44921875 21.67382812 C-21.47517631 15.08493336 -20.62166004 9.62176084 -17 4 C-11.52439878 -0.46987855 -6.8898399 -1.86599831 0 0 Z M-10.25 5.5 C-15.59092946 13.12989923 -13.74214168 28.98990844 -12.1875 37.8125 C-11.52149892 41.11973611 -10.65983331 42.87213335 -8 45 C-5.5 45.58333333 -5.5 45.58333333 -3 45 C0.43724151 41.68551712 0.88138394 37.95788391 1.16113281 33.34033203 C1.20667365 30.26844397 1.23521205 27.19719642 1.25 24.125 C1.270625 23.06152344 1.29125 21.99804688 1.3125 20.90234375 C1.34281072 14.80231176 0.96406421 10.37423764 -2 5 C-3.04142874 3.75655686 -3.04142874 3.75655686 -5.3125 3.6875 C-8.07247732 3.80192202 -8.07247732 3.80192202 -10.25 5.5 Z " fill="#F6F6F6" transform="translate(1232,2130)"/>
<path d="M0 0 C4.04010065 3.39735736 5.69326062 7.23371101 6.75 12.3125 C7.02026764 15.87145885 7.02712509 19.43185064 7.0625 23 C7.09150391 23.95583984 7.12050781 24.91167969 7.15039062 25.89648438 C7.20841561 32.44438025 6.25559568 37.69402535 2.75 43.3125 C-0.94828631 46.67457847 -4.39268322 48.02643132 -9.296875 48.41015625 C-13.78044429 48.18597779 -16.51037144 46.09321904 -19.5 42.9375 C-25.47386623 33.97670065 -25.25596913 22.31826106 -23.5 12 C-22.32980833 6.80830455 -20.22248516 3.10006467 -16.25 -0.5 C-10.77164026 -3.7527761 -5.57225113 -2.89328424 0 0 Z M-12.96289062 4.3828125 C-15.75109249 7.95437766 -15.87026986 9.70323258 -15.84375 14.1875 C-15.84117187 15.50234375 -15.83859375 16.8171875 -15.8359375 18.171875 C-15.82143555 18.85185547 -15.80693359 19.53183594 -15.79199219 20.23242188 C-15.75011193 22.30695557 -15.75092899 24.3782394 -15.7578125 26.453125 C-15.91989329 35.67911757 -15.91989329 35.67911757 -11.25 43.3125 C-8.87778044 43.81385199 -8.87778044 43.81385199 -6.25 43.3125 C-2.89483197 40.51652664 -1.98658204 37.94677011 -1.5 33.75 C-0.06406606 18.50202037 -0.06406606 18.50202037 -4.0625 4.25 C-7.47341896 1.22890035 -9.46406675 1.71272372 -12.96289062 4.3828125 Z " fill="#F8F8F8" transform="translate(516.25,2131.6875)"/>
<path d="M0 0 C4.44795496 3.2066652 6.62956474 7.55571963 7.6875 12.9375 C7.95776764 16.49645885 7.96462509 20.05685064 8 23.625 C8.02900391 24.58083984 8.05800781 25.53667969 8.08789062 26.52148438 C8.15649285 34.26298147 6.68024526 40.51721971 1.5 46.4375 C-2.40529458 48.52032378 -5.89904024 49.1249744 -10.3125 48.9375 C-15.29061793 47.31003837 -18.60180101 44.38713796 -21.3125 39.9375 C-25.01640331 30.41317719 -24.64953996 17.47670786 -21.23046875 7.92578125 C-16.94158121 -1.36376665 -9.19908016 -2.95064835 0 0 Z M-8.3125 2.9375 C-12.22853304 5.73170492 -12.22853304 5.73170492 -14.3125 9.9375 C-14.54868269 14.3920246 -14.49768185 18.85238681 -14.5 23.3125 C-14.51224609 24.54484375 -14.52449219 25.7771875 -14.53710938 27.046875 C-14.53904297 28.23539063 -14.54097656 29.42390625 -14.54296875 30.6484375 C-14.54707764 31.73431152 -14.55118652 32.82018555 -14.55541992 33.93896484 C-14.21429737 38.14968559 -13.31210427 40.93789573 -10.3125 43.9375 C-6.78355052 43.85006309 -6.78355052 43.85006309 -3.3125 42.9375 C0.62786293 37.0269556 -0.09919306 29.88453489 -0.0625 23 C-0.041875 22.03642578 -0.02125 21.07285156 0 20.08007812 C0.03183866 14.25758383 -0.40585047 10.03616182 -3.3125 4.9375 C-5.85618999 3.43297543 -5.85618999 3.43297543 -8.3125 2.9375 Z " fill="#F9F9F9" transform="translate(852.3125,1495.0625)"/>
<path d="M0 0 C5.26795394 6.77308363 5.70916212 12.77966836 5.6875 21.125 C5.71585938 22.10662109 5.74421875 23.08824219 5.7734375 24.09960938 C5.79249476 31.29848983 4.25327623 36.81348703 0.1875 42.8125 C-3.81341314 45.9041147 -7.69809717 46.35984886 -12.63671875 46.15234375 C-16.24979679 45.58800301 -18.1522103 44.28718809 -20.8125 41.8125 C-26.9502717 32.21239555 -27.34350073 20.39751504 -25.12890625 9.42578125 C-23.20791152 3.58308774 -21.08595958 0.04114872 -15.8125 -3.1875 C-10.22552382 -5.39288534 -4.555554 -3.54320867 0 0 Z M-14 2.6875 C-18.34375667 7.78018023 -17.03705628 14.22908492 -17.0625 20.625 C-17.083125 21.90955078 -17.10375 23.19410156 -17.125 24.51757812 C-17.13015625 25.75572266 -17.1353125 26.99386719 -17.140625 28.26953125 C-17.1499707 29.40366455 -17.15931641 30.53779785 -17.16894531 31.70629883 C-16.66081948 36.13430222 -14.91982836 38.70517164 -11.8125 41.8125 C-8.72162504 41.65399359 -7.2690053 41.2690053 -5.0625 39.0625 C-1.98342707 33.52016872 -2.62904681 27.0301961 -2.625 20.875 C-2.61275391 19.89853516 -2.60050781 18.92207031 -2.58789062 17.91601562 C-2.5760372 12.08808159 -2.60239859 6.82627466 -6.1875 1.9375 C-9.25450526 -0.18581134 -11.32787115 0.39710385 -14 2.6875 Z " fill="#F9F9F9" transform="translate(854.8125,481.1875)"/>
<path d="M0 0 C4.98970273 2.25948803 6.9864685 5.12317998 9.23828125 9.90234375 C12.53614949 18.98416552 12.38517549 31.8424226 9.1015625 40.94140625 C6.79083874 45.25967371 3.65343917 48.08250434 -0.98828125 49.6875 C-5.9838518 50.61871315 -9.6433802 49.71261233 -14 47 C-19.63234375 40.13057816 -20.19966402 33.90107632 -20.25 25.3125 C-20.270625 24.45205078 -20.29125 23.59160156 -20.3125 22.70507812 C-20.35053848 16.39544579 -19.94452632 9.29990872 -15.54760742 4.37231445 C-10.43690372 0.01639853 -6.54108292 -0.76110408 0 0 Z M-7.625 5 C-10.70720823 7.59554378 -11.04910481 9.06363657 -12 13 C-12.28346876 16.81615219 -12.27914332 20.61243916 -12.25 24.4375 C-12.25773438 25.44876953 -12.26546875 26.46003906 -12.2734375 27.50195312 C-12.44313733 37.01797428 -12.44313733 37.01797428 -8 45 C-3.84960536 45.45783683 -3.84960536 45.45783683 -0.1875 43.75 C3.45892347 38.37632331 2.22411465 30.74586413 2.25 24.5625 C2.270625 23.33466797 2.29125 22.10683594 2.3125 20.84179688 C2.32023438 19.06579102 2.32023438 19.06579102 2.328125 17.25390625 C2.3374707 16.17439697 2.34681641 15.0948877 2.35644531 13.98266602 C1.86185746 9.84404971 0.38158415 7.10526732 -2.875 4.5 C-5.11572299 3.76324563 -5.11572299 3.76324563 -7.625 5 Z " fill="#FAFAFA" transform="translate(876,2511)"/>
<path d="M0 0 C6.07342271 5.28123714 7.70927487 12.0373766 8.28515625 19.88671875 C8.58279982 28.90531887 8.21736079 37.14170484 2.5 44.5 C-0.84552084 47.84552084 -3.31848857 48.16690253 -7.875 48.25 C-12.10806047 48.18232025 -14.76349236 47.95093344 -18 45 C-22.81252061 38.22318526 -23.20301793 32.32881586 -23.25 24.3125 C-23.270625 23.45205078 -23.29125 22.59160156 -23.3125 21.70507812 C-23.3534376 14.91455423 -22.61036853 8.34320981 -18.31640625 2.84375 C-17.73761719 2.4003125 -17.15882813 1.956875 -16.5625 1.5 C-15.98628906 1.0359375 -15.41007813 0.571875 -14.81640625 0.09375 C-9.87840255 -2.87967158 -5.19049733 -1.99634513 0 0 Z M-12.3125 4.625 C-16.05219438 9.88827357 -15.18340478 16.6748413 -15.1875 22.875 C-15.19974609 23.84308594 -15.21199219 24.81117188 -15.22460938 25.80859375 C-15.23701682 31.88824349 -15.2156333 37.72930323 -11.6875 42.9375 C-9.2681121 44.46081831 -7.79933738 44.48988404 -5 44 C0.42621097 38.37999578 -0.78036051 30.96263786 -0.75 23.6875 C-0.729375 22.46353516 -0.70875 21.23957031 -0.6875 19.97851562 C-0.67976562 18.20057617 -0.67976562 18.20057617 -0.671875 16.38671875 C-0.6625293 15.30608154 -0.65318359 14.22544434 -0.64355469 13.11206055 C-1.05958518 9.47977239 -2.07302443 7.09498528 -4 4 C-7.63633237 2.60736207 -9.08591532 2.35767022 -12.3125 4.625 Z " fill="#F9F9F9" transform="translate(879,3530)"/>
<path d="M0 0 C3.8632936 3.23438534 5.3023828 5.76454793 6.5625 10.625 C6.81143381 17.84408049 3.33481955 22.14922723 -1.33203125 27.25390625 C-4.49810404 30.44495792 -7.87518618 33.35762618 -11.3125 36.25 C-11.8075 36.745 -11.8075 36.745 -12.3125 37.25 C-8.0225 37.25 -3.7325 37.25 0.6875 37.25 C1.0175 35.27 1.3475 33.29 1.6875 31.25 C3.0075 31.25 4.3275 31.25 5.6875 31.25 C5.89568303 37.18321622 5.42370116 40.17329596 3.6875 46.25 C-5.2225 46.25 -14.1325 46.25 -23.3125 46.25 C-22.19444001 38.42358009 -22.19444001 38.42358009 -18.75 35.4375 C-12.01436056 29.19944834 -4.73478343 22.26753887 -4.0625 12.6875 C-4.29248227 9.52524378 -4.53256813 7.82101271 -6.3125 5.25 C-8.59955831 4.10647084 -9.90514762 4.14665561 -12.4375 4.1875 C-13.71625 4.208125 -14.995 4.22875 -16.3125 4.25 C-15.796875 4.765625 -15.28125 5.28125 -14.75 5.8125 C-12.73984299 9.2210271 -13.51522604 11.48106857 -14.3125 15.25 C-17.6875 15.875 -17.6875 15.875 -21.3125 16.25 C-23.3125 14.25 -23.3125 14.25 -23.6875 10.5 C-23.54255849 6.06317919 -22.38822341 3.55640266 -19.3125 0.25 C-12.83291123 -3.67789231 -6.68164156 -3.52992385 0 0 Z " fill="#F7F7F7" transform="translate(1289.3125,2131.75)"/>
<path d="M0 0 C3.51520834 2.3707219 5.79390381 5.02530762 7.6875 8.8125 C7.92578125 10.73046875 7.92578125 10.73046875 8 13 C8.03738281 13.73605469 8.07476563 14.47210937 8.11328125 15.23046875 C6.95921914 22.22895548 2.14383485 26.70730521 -2.9375 31.1875 C-3.52273438 31.71988281 -4.10796875 32.25226563 -4.7109375 32.80078125 C-8.97361607 36.64305804 -8.97361607 36.64305804 -11.3125 37.8125 C-7.0225 38.1425 -2.7325 38.4725 1.6875 38.8125 C2.0175 36.5025 2.3475 34.1925 2.6875 31.8125 C4.3375 31.8125 5.9875 31.8125 7.6875 31.8125 C7.54629286 33.75034265 7.39937127 35.68776955 7.25 37.625 C7.16878906 38.70394531 7.08757813 39.78289062 7.00390625 40.89453125 C6.6875 43.8125 6.6875 43.8125 5.6875 46.8125 C-3.5525 46.8125 -12.7925 46.8125 -22.3125 46.8125 C-21.19543803 40.11012816 -21.19543803 40.11012816 -17.75 37.0625 C-10.9645516 30.66758101 -4.61934809 24.03989238 -2.3125 14.8125 C-2.38421576 11.08328048 -2.85554374 9.43265492 -5.0625 6.4375 C-7.72261015 4.51630934 -9.10314469 4.45590497 -12.3125 4.8125 C-12.3125 6.1325 -12.3125 7.4525 -12.3125 8.8125 C-12.3125 11.14583333 -12.3125 13.47916667 -12.3125 15.8125 C-15.10113007 17.20681504 -17.23328868 17.06910094 -20.3125 16.8125 C-22.59009465 13.39610803 -22.47979212 11.78641758 -21.8515625 7.8125 C-20.77985495 3.83630967 -18.58660991 1.57696594 -15.125 -0.5 C-9.83755186 -1.79248732 -5.14395889 -1.84406074 0 0 Z " fill="#F8F8F8" transform="translate(906.3125,1495.1875)"/>
<path d="M0 0 C0.83402344 0.16757813 1.66804687 0.33515625 2.52734375 0.5078125 C9.78460281 1.82126832 14.91727559 1.97387402 22 0 C22.66 0.33 23.32 0.66 24 1 C23.74433121 4.45152861 22.73802926 5.24488569 20.125 7.6875 C16.30434126 10.51478747 13.93221871 11.12945245 9.3125 11.0625 C8.10013672 11.04896484 8.10013672 11.04896484 6.86328125 11.03515625 C5.94095703 11.01775391 5.94095703 11.01775391 5 11 C5 13.64 5 16.28 5 19 C5.66 18.67 6.32 18.34 7 18 C11.47884596 17.58778763 15.6311333 17.49411448 19.875 19.0625 C23.79250771 22.63434526 25.69562239 25.70640712 26.38671875 30.9140625 C26.55872434 35.69463177 26.40597963 39.12558234 24.375 43.5 C20.1135467 47.98574031 16.2144219 50.61201473 10.01953125 51.09765625 C5.2643072 50.86771311 1.96272084 48.93738608 -1.375 45.6875 C-3.23899429 42.60474021 -3.92490872 40.60438152 -4 37 C-2.875 34.125 -2.875 34.125 -1 32 C1.5625 31.5625 1.5625 31.5625 4 32 C6 34 6 34 6.25 36.9375 C6 40 6 40 4 43 C8.12168689 44.62950412 10.70700357 45.26264601 15 44 C16.09016409 40.46994485 16.13344314 37.18121037 16.125 33.5 C16.12757813 32.3759375 16.13015625 31.251875 16.1328125 30.09375 C16.02266367 27.5279301 15.75270662 25.43733573 15 23 C9.69317426 23.40821736 7.59218115 24.16008222 4 28 C2.68 28 1.36 28 0 28 C-1.29361994 25.41276011 -1.12948949 23.51886997 -1.1328125 20.625 C-1.13410156 19.55765625 -1.13539063 18.4903125 -1.13671875 17.390625 C-1.13285156 16.27171875 -1.12898437 15.1528125 -1.125 14 C-1.12886719 12.88109375 -1.13273438 11.7621875 -1.13671875 10.609375 C-1.13542969 9.54203125 -1.13414062 8.4746875 -1.1328125 7.375 C-1.13112061 5.90160156 -1.13112061 5.90160156 -1.12939453 4.3984375 C-1 2 -1 2 0 0 Z " fill="#F5F5F5" transform="translate(822,2129)"/>
<path d="M0 0 C3.61856848 3.02949919 5.33541336 4.98811009 6.07421875 9.734375 C6.4461528 15.71838061 5.75559204 19.56235706 1.8203125 24.125 C-2.74027565 28.6688827 -7.48095157 32.99698649 -12.3125 37.25 C-8.0225 37.25 -3.7325 37.25 0.6875 37.25 C0.6875 35.6 0.6875 33.95 0.6875 32.25 C3.1625 31.755 3.1625 31.755 5.6875 31.25 C5.54723717 33.56284456 5.40014442 35.87527591 5.25 38.1875 C5.16878906 39.47527344 5.08757813 40.76304687 5.00390625 42.08984375 C4.6875 45.25 4.6875 45.25 3.6875 46.25 C1.68785018 46.33758003 -0.3148611 46.35696576 -2.31640625 46.34765625 C-3.53134766 46.34443359 -4.74628906 46.34121094 -5.99804688 46.33789062 C-7.27744141 46.32951172 -8.55683594 46.32113281 -9.875 46.3125 C-11.15826172 46.30798828 -12.44152344 46.30347656 -13.76367188 46.29882812 C-16.94666022 46.28699545 -20.12955762 46.27051068 -23.3125 46.25 C-23.5234375 41.53613281 -23.5234375 41.53613281 -21.625 38.9609375 C-20.861875 38.19007813 -20.09875 37.41921875 -19.3125 36.625 C-8.96840126 26.10296216 -8.96840126 26.10296216 -4.0625 12.75 C-4.29091665 9.55216686 -4.51521814 7.84607379 -6.3125 5.25 C-9.05155345 3.88047327 -11.28337332 4.12378639 -14.3125 4.25 C-15.3025 4.745 -15.3025 4.745 -16.3125 5.25 C-15.796875 5.806875 -15.28125 6.36375 -14.75 6.9375 C-13.3125 9.25 -13.3125 9.25 -13.5 11.875 C-14.3125 14.25 -14.3125 14.25 -16.3125 16.25 C-18.8125 16.5 -18.8125 16.5 -21.3125 16.25 C-23.3125 14.25 -23.3125 14.25 -23.625 10.4375 C-23.51383698 6.60237573 -22.81411881 4.26919511 -20.3125 1.25 C-13.70154918 -3.49632367 -7.20016119 -3.80385874 0 0 Z " fill="#F8F8F8" transform="translate(807.3125,2131.75)"/>
<path d="M0 0 C0.969375 0.165 1.93875 0.33 2.9375 0.5 C10.04819531 1.50352555 16.92216049 1.02950393 24 0 C23.9207007 2.77547542 23.56063986 4.46739213 21.515625 6.41015625 C15.9279496 10.50539698 11.96391529 11.13392145 5 11 C5.33 13.31 5.66 15.62 6 18 C6.58007812 17.89300781 7.16015625 17.78601562 7.7578125 17.67578125 C13.10696576 16.85487159 16.37316627 16.77197647 21 20 C25.88213493 25.4099333 26.34974241 28.85816841 26.28125 36.015625 C25.90527325 40.00515608 24.70677281 42.07375912 22 45 C21.29875 45.763125 20.5975 46.52625 19.875 47.3125 C15.70622721 49.75938838 11.79762452 50.19252105 7 50 C2.31736154 48.43912051 -0.56128285 46.31465343 -3 42 C-3.36790578 38.96348186 -3.38262614 36.03591891 -3 33 C-2 32 -2 32 1.5 31.875 C5 32 5 32 6 33 C6.26293056 37.03160191 6.29404844 38.55892734 4 42 C6.63390925 43.72217143 7.92411417 44.00455315 11.125 43.8125 C14.30207184 43.25088039 14.30207184 43.25088039 16 40 C16.31880186 36.67053975 16.31880186 36.67053975 16.25 33 C16.25515625 31.7625 16.2603125 30.525 16.265625 29.25 C16.25251361 25.85326856 16.25251361 25.85326856 14 23 C8.27022874 23.53231961 8.27022874 23.53231961 4 27 C2.68 27 1.36 27 0 27 C-0.98948571 24.03154286 -1.12890185 22.06179939 -1.1328125 18.96484375 C-1.13410156 17.99095703 -1.13539063 17.01707031 -1.13671875 16.01367188 C-1.13285156 14.99853516 -1.12898437 13.98339844 -1.125 12.9375 C-1.12886719 11.91849609 -1.13273438 10.89949219 -1.13671875 9.84960938 C-1.13542969 8.87701172 -1.13414062 7.90441406 -1.1328125 6.90234375 C-1.13168457 6.01023193 -1.13055664 5.11812012 -1.12939453 4.19897461 C-1 2 -1 2 0 0 Z " fill="#F5F5F5" transform="translate(949,2511)"/>
<path d="M0 0 C2.31 0.33 4.62 0.66 7 1 C12.76626331 1.29174546 18.31646431 0.98844099 24 0 C24.4375 2.1875 24.4375 2.1875 24 5 C20.24050988 8.73877667 16.17180512 10.85530086 10.859375 11.09765625 C10.16328125 11.08605469 9.4671875 11.07445313 8.75 11.0625 C6.89375 11.0315625 6.89375 11.0315625 5 11 C5 13.64 5 16.28 5 19 C5.66 18.649375 6.32 18.29875 7 17.9375 C10.91286252 16.71473046 14.1391746 16.74961905 18 18 C21.89766669 20.33707749 24.43777817 22.85111191 26.4375 26.9375 C27.63752455 33.47096698 27.26370954 38.12532283 24 44 C20.8258414 47.36495502 17.64119775 49.74280471 12.9140625 50.203125 C8.10884778 50.3015253 4.80632984 50.26256844 1 47 C-1.8479438 43.61325602 -2.93191306 41.68086945 -3.375 37.25 C-3 34 -3 34 -1 32 C2 31.75 2 31.75 5 32 C7 34 7 34 7.3125 36.4375 C6.95209822 39.39279457 6.28773145 40.18887927 4 42 C7.46923881 44.31282587 8.92205575 44.42478586 13 44 C15.01614692 42.60955385 15.77055869 41.56317412 16.6875 39.3125 C17.3918049 34.10064376 17.91823656 28.58580031 15 24 C11.80763476 22.82386544 9.15433069 22.64814399 6 24 C5.67 24.99 5.34 25.98 5 27 C3.35 27 1.7 27 0 27 C0 18.09 0 9.18 0 0 Z " fill="#F7F7F7" transform="translate(313,2130)"/>
<path d="M0 0 C2.00676749 0.31355742 4.00579363 0.67704576 6 1.0625 C12.02632524 2.06578017 16.19042632 1.77241231 22 0 C22.33 1.65 22.66 3.3 23 5 C18.42840073 8.80966606 15.32077529 11.30355221 9.25 11.125 C8.45078125 11.10695313 7.6515625 11.08890625 6.828125 11.0703125 C6.22484375 11.04710938 5.6215625 11.02390625 5 11 C5 13.64 5 16.28 5 19 C5.66 18.67 6.32 18.34 7 18 C11.5577278 17.44395721 15.10135451 17.59306619 19.3125 19.5 C23.64698486 23.53207894 26.14655093 28.01492911 26.5 34 C26.14797935 39.96088292 23.68607524 44.47076897 19.3125 48.4375 C13.95197196 50.96605096 9.36280419 51.8024618 3.6875 49.875 C-0.58811377 46.89201365 -2.59910487 44.52340148 -3.9375 39.4375 C-4 36 -4 36 -2.875 33.5625 C-1 32 -1 32 1.5625 31.625 C4 32 4 32 6 34 C6.34490322 38.05261287 6.30163882 39.54754176 4 43 C6.73185596 44.30059064 6.73185596 44.30059064 10 45 C12.94450894 43.69132936 14.54701431 42.90597137 16 40 C16.14867166 37.87856978 16.2213289 35.75144008 16.25 33.625 C16.27578125 32.48289062 16.3015625 31.34078125 16.328125 30.1640625 C15.97621427 26.77063765 15.29582784 25.45291079 13 23 C8.51315799 23.33867462 8.51315799 23.33867462 5.125 26.0625 C4.75375 26.701875 4.3825 27.34125 4 28 C2.35 27.67 0.7 27.34 -1 27 C-1.02886537 22.68751391 -1.04675255 18.37505238 -1.0625 14.0625 C-1.07087891 12.83080078 -1.07925781 11.59910156 -1.08789062 10.33007812 C-1.09111328 9.16025391 -1.09433594 7.99042969 -1.09765625 6.78515625 C-1.10289307 5.70113525 -1.10812988 4.61711426 -1.11352539 3.50024414 C-1 1 -1 1 0 0 Z " fill="#F5F5F5" transform="translate(551,2129)"/>
<path d="M0 0 C2.14897311 0.11955344 4.2947956 0.29703123 6.4375 0.5 C12.45158255 0.98629736 18.04028274 0.89258438 24 0 C24 2.1875 24 2.1875 23 5 C18.98206072 8.88156014 15.04594531 10.3125 9.5 10.3125 C7.99847195 10.23335319 6.49726023 10.13806703 5 10 C5 12.64 5 15.28 5 18 C5.66 17.67 6.32 17.34 7 17 C11.21019538 16.56988181 14.88692855 16.5300365 18.8125 18.1875 C21.86233368 20.71450505 24.22459283 23.44918566 26 27 C26.50502343 32.53042052 26.73807257 37.41030524 24.375 42.5 C20.00562265 47.09934457 16.90522367 49.23927176 10.5 49.5 C5.57265949 49.27907305 2.55688187 48.64580392 -1 45 C-2.49939096 42.08154259 -3.63145143 39.27086857 -4 36 C-3.21484375 33.7734375 -3.21484375 33.7734375 -2 32 C0.4375 31.125 0.4375 31.125 3 31 C3.99 31.66 4.98 32.32 6 33 C6.43132515 37.05445642 6.30019361 38.54970958 4 42 C6.61069322 43.70699172 7.95317812 44.00187288 11.125 43.875 C14.03255978 43.31064432 14.03255978 43.31064432 15.16796875 41.3515625 C16.24541341 38.30639028 16.22818594 35.72528548 16.1875 32.5 C16.18105469 31.3759375 16.17460938 30.251875 16.16796875 29.09375 C16.0295553 26.54436746 15.74334614 24.4262818 15 22 C11.53058454 22.45822468 8.32604951 22.89131683 5 24 C4.67 24.99 4.34 25.98 4 27 C2.68 27 1.36 27 0 27 C-1.01255033 23.96234901 -1.12900588 21.88837779 -1.1328125 18.7109375 C-1.13410156 17.68742187 -1.13539063 16.66390625 -1.13671875 15.609375 C-1.13285156 14.54203125 -1.12898437 13.4746875 -1.125 12.375 C-1.12886719 11.29992188 -1.13273438 10.22484375 -1.13671875 9.1171875 C-1.13478516 7.58578125 -1.13478516 7.58578125 -1.1328125 6.0234375 C-1.13112061 4.61457275 -1.13112061 4.61457275 -1.12939453 3.17724609 C-1 1 -1 1 0 0 Z " fill="#F5F5F5" transform="translate(949,3529)"/>
<path d="M0 0 C1.81975304 0.3147843 3.63114518 0.67821815 5.4375 1.0625 C11.44110721 2.14818226 16.17570838 1.67512812 22 0 C22.33 1.65 22.66 3.3 23 5 C17.30585477 9.62133526 13.27970233 11.68454718 5.87109375 11.2109375 C5.25363281 11.14132813 4.63617187 11.07171875 4 11 C4 13.64 4 16.28 4 19 C4.66 18.67 5.32 18.34 6 18 C10.98066973 17.45355962 14.8958307 17.45795325 19.4375 19.6875 C23.72397354 23.555781 25.53898949 26.96809451 26.05859375 32.81640625 C25.93245295 37.51725327 24.69386898 41.94742936 21.671875 45.609375 C17.35351418 49.47317153 13.23756627 51.07991308 7.5 50.875 C2.94387005 49.73596751 -0.43718521 47.98903701 -3.375 44.25 C-4.35548491 40.72025432 -4.23642745 37.66462544 -4 34 C-2 32 -2 32 0.4375 31.625 C3 32 3 32 4.9375 33.5625 C6.50208963 37.15185269 5.30242531 39.43546757 4 43 C6.523494 44.19164995 8.37237823 45.0358641 11.1875 44.875 C13.70280467 43.66071499 14.00944409 42.60874855 15 40 C15.35441992 36.59587155 15.35441992 36.59587155 15.3125 32.9375 C15.32925781 31.70902344 15.34601563 30.48054688 15.36328125 29.21484375 C15.26651015 26.04785369 15.26651015 26.04785369 13.6328125 24.0625 C11.98395399 22.77003153 11.98395399 22.77003153 9.5625 23.0625 C6.86502843 23.84545755 6.86502843 23.84545755 4.9375 26.0625 C4.298125 26.701875 3.65875 27.34125 3 28 C1.68 28 0.36 28 -1 28 C-1.02886338 23.52084672 -1.04675187 19.04171709 -1.0625 14.5625 C-1.07506836 12.6434082 -1.07506836 12.6434082 -1.08789062 10.68554688 C-1.09111328 9.47060547 -1.09433594 8.25566406 -1.09765625 7.00390625 C-1.10289307 5.87799072 -1.10812988 4.7520752 -1.11352539 3.59204102 C-1 1 -1 1 0 0 Z " fill="#F6F6F6" transform="translate(1542,2129)"/>
<path d="M0 0 C1.23363281 0.25136719 1.23363281 0.25136719 2.4921875 0.5078125 C9.88783615 1.85713408 15.76252828 2.12386303 23 0 C23.17578125 2.328125 23.17578125 2.328125 23 5 C19.42971606 8.4909443 16.63589545 10.89622459 11.51953125 11.09765625 C10.62621094 11.08605469 9.73289062 11.07445313 8.8125 11.0625 C7.91144531 11.05347656 7.01039062 11.04445313 6.08203125 11.03515625 C5.39496094 11.02355469 4.70789062 11.01195313 4 11 C4.33 13.64 4.66 16.28 5 19 C5.66 18.67 6.32 18.34 7 18 C11.25239453 17.38585161 15.28722388 17.07029639 19.14453125 19.1640625 C23.41303462 22.66872842 25.64680219 25.71469976 26.24609375 31.2890625 C26.55317211 37.44924054 25.74424145 41.07336651 22 46 C17.69800353 49.71536059 13.63347182 51.26151513 8 51 C3.70954282 49.78437047 1.55879952 48.61611229 -1.4375 45.3125 C-3.43953705 41.06818146 -3.46493202 38.64932016 -3 34 C-1 32 -1 32 1.5 31.75 C4 32 4 32 6 34 C6.34490322 38.05261287 6.30163882 39.54754176 4 43 C6.73185596 44.30059064 6.73185596 44.30059064 10 45 C12.85688329 43.9529689 12.85688329 43.9529689 15 42 C16.05885037 38.8234489 16.20049266 36.40011989 16.25 33.0625 C16.27578125 32.02222656 16.3015625 30.98195313 16.328125 29.91015625 C15.96423357 26.68278581 15.16358594 25.36286359 13 23 C8.51315799 23.33867462 8.51315799 23.33867462 5.125 26.0625 C4.75375 26.701875 4.3825 27.34125 4 28 C2.35 27.67 0.7 27.34 -1 27 C-1.02892385 22.87501462 -1.04677267 18.75005515 -1.0625 14.625 C-1.07087891 13.449375 -1.07925781 12.27375 -1.08789062 11.0625 C-1.09111328 9.94101563 -1.09433594 8.81953125 -1.09765625 7.6640625 C-1.10289307 6.62717285 -1.10812988 5.5902832 -1.11352539 4.52197266 C-1 2 -1 2 0 0 Z " fill="#F3F3F3" transform="translate(1304,2129)"/>
<path d="M0 0 C0.78375 0.144375 1.5675 0.28875 2.375 0.4375 C9.21457947 1.49881406 16.21931404 1.46609426 23 0 C22.71349017 3.43811794 22.26566773 4.74171193 19.75 7.1875 C14.27134324 10.79843286 10.43618381 11.21817572 4 11 C4 13.64 4 16.28 4 19 C4.66 18.649375 5.32 18.29875 6 17.9375 C9.89077716 16.72163214 13.1422207 16.84266621 17 18 C21.99174169 21.20224939 24.4071055 24.28431973 26 30 C26.24237282 36.36228645 25.220895 41.05552301 21 46 C16.7343665 49.74858701 12.80690338 50.35814981 7.28515625 50.27734375 C3.66255607 49.83767775 1.67243392 48.41791641 -1 46 C-3.50662492 42.36135092 -4.04108435 40.62653634 -3.75 36.1875 C-3 33 -3 33 -2 32 C0.9375 31.75 0.9375 31.75 4 32 C6 35 6 35 5.75 37.5625 C5 40 5 40 3 42 C6.46923881 44.31282587 7.92205575 44.42478586 12 44 C13.82679304 43.04745012 13.82679304 43.04745012 15 41 C15.27107281 38.22223238 15.37370959 35.70662166 15.3125 32.9375 C15.31572266 32.20466797 15.31894531 31.47183594 15.32226562 30.71679688 C15.41458604 26.39212339 15.41458604 26.39212339 13 23 C9.47105052 23.08743691 9.47105052 23.08743691 6 24 C5.34 24.99 4.68 25.98 4 27 C1.375 27.1875 1.375 27.1875 -1 27 C-1.02886537 22.68751391 -1.04675255 18.37505238 -1.0625 14.0625 C-1.07087891 12.83080078 -1.07925781 11.59910156 -1.08789062 10.33007812 C-1.09111328 9.16025391 -1.09433594 7.99042969 -1.09765625 6.78515625 C-1.10289307 5.70113525 -1.10812988 4.61711426 -1.11352539 3.50024414 C-1 1 -1 1 0 0 Z " fill="#F8F8F8" transform="translate(1813,2130)"/>
<path d="M0 0 C3.375 1.6875 3.375 1.6875 6 4 C6.78375 4.680625 7.5675 5.36125 8.375 6.0625 C10.89321628 10.61466019 10.7216613 14.91830171 10 20 C6.37802308 27.69670095 -1.43072903 33.74458323 -8 39 C-3.71 39.33 0.58 39.66 5 40 C5.33 37.69 5.66 35.38 6 33 C7.32 33 8.64 33 10 33 C9.85973717 35.31284456 9.71264442 37.62527591 9.5625 39.9375 C9.48128906 41.22527344 9.40007813 42.51304687 9.31640625 43.83984375 C9 47 9 47 8 48 C6.00035018 48.08758003 3.9976389 48.10696576 1.99609375 48.09765625 C0.78115234 48.09443359 -0.43378906 48.09121094 -1.68554688 48.08789062 C-2.96494141 48.07951172 -4.24433594 48.07113281 -5.5625 48.0625 C-6.84576172 48.05798828 -8.12902344 48.05347656 -9.45117188 48.04882812 C-12.63416022 48.03699545 -15.81705762 48.02051068 -19 48 C-19.15185547 43.20410156 -19.15185547 43.20410156 -17.78515625 41.3671875 C-17.21667969 40.87476562 -16.64820313 40.38234375 -16.0625 39.875 C-12.87095615 36.90445918 -10.03418165 33.79583367 -7.25 30.4375 C-6.51265625 29.54933594 -5.7753125 28.66117188 -5.015625 27.74609375 C-0.74108772 21.92245091 0.45425142 18.040897 0 11 C-0.41731018 8.64470719 -0.41731018 8.64470719 -1 7 C-2.27875 6.79375 -3.5575 6.5875 -4.875 6.375 C-5.59429688 6.25898438 -6.31359375 6.14296875 -7.0546875 6.0234375 C-7.69664062 6.01570313 -8.33859375 6.00796875 -9 6 C-9.66 6.66 -10.32 7.32 -11 8 C-10.34 8.66 -9.68 9.32 -9 10 C-8.75 13 -8.75 13 -9 16 C-11 18 -11 18 -14 18.25 C-17 18 -17 18 -19 16 C-19.48294318 11.81449245 -19.2669775 9.51417889 -17.3125 5.75 C-12.34513701 -0.15713437 -7.48521427 -1.08133111 0 0 Z " fill="#FAFAFA" transform="translate(930,2511)"/>
<path d="M0 0 C2.31 0.33 4.62 0.66 7 1 C12.76626331 1.29174546 18.31646431 0.98844099 24 0 C23.71711523 3.39461728 23.25867941 4.74132059 20.8125 7.1875 C15.911345 10.34602211 11.80168034 11.27627049 6 11 C5.67 13.64 5.34 16.28 5 19 C5.515625 18.67 6.03125 18.34 6.5625 18 C9.93843074 16.61500277 12.37415116 16.62491219 16 17 C19.25 18.8125 19.25 18.8125 22 21 C22.5775 21.45375 23.155 21.9075 23.75 22.375 C27.26913452 26.94987487 27.43420405 31.9456181 26.734375 37.4609375 C25.41523527 42.02179296 22.60238746 45.01537733 19 48 C14.94527754 50.15676727 11.41833708 50.33129052 6.9609375 49.60546875 C2.6128934 48.26294517 -0.18571441 45.48051926 -2.375 41.5 C-3.0388256 38.84469761 -3.29438892 36.72309751 -3 34 C-1 32 -1 32 2 31.75 C5 32 5 32 7 34 C7.38286803 37.73296326 7.14915785 38.77626323 5 42 C8.37069617 43.48937738 10.21458714 44.22689705 13.8125 43.1875 C16.64833481 40.35166519 16.84147655 38.41390212 17.0859375 34.49609375 C16.94913417 30.52257873 16.09018079 26.81112788 15 23 C12.167832 22.66551741 12.167832 22.66551741 9 23 C7.64631404 24.31266518 6.31200404 25.64567325 5 27 C3.35 27 1.7 27 0 27 C0 18.09 0 9.18 0 0 Z " fill="#F7F7F7" transform="translate(922,1494)"/>
<path d="M0 0 C1.134375 0.33 2.26875 0.66 3.4375 1 C9.6784229 2.67549101 15.83880525 1.65334813 22 0 C22.33 1.65 22.66 3.3 23 5 C18.14505997 9.20761469 15.43680208 11.1485299 8.8125 11.0625 C7.91144531 11.05347656 7.01039063 11.04445313 6.08203125 11.03515625 C5.39496094 11.02355469 4.70789063 11.01195312 4 11 C4.33 13.64 4.66 16.28 5 19 C5.66 18.67 6.32 18.34 7 18 C11.67470792 17.42968563 15.12316498 17.56158249 19.375 19.6875 C24.31003015 24.03502656 25.65782364 27.98264612 26.12890625 34.43359375 C25.85017633 39.98285308 23.36179754 43.73547371 19.375 47.4375 C14.6403979 50.55236981 10.58634984 50.60926396 5 50 C1.16772052 48.18837697 -0.54446681 46.66125786 -2.9375 43.1875 C-4.20645819 39.38062544 -3.85371316 36.88051437 -3 33 C2.41139241 31.67721519 2.41139241 31.67721519 4.9375 33.0625 C6.52666796 35.96039451 5.87523205 37.90302504 5 41 C4.01 41.495 4.01 41.495 3 42 C6.46923881 44.31282587 7.92205575 44.42478586 12 44 C14.02656551 42.45112493 14.87519616 41.45999129 15.546875 38.984375 C15.98624332 34.15132346 16.07464817 29.7870691 15 25 C14.34 24.34 13.68 23.68 13 23 C9.28085943 23.16170176 7.54205961 23.45794039 4.875 26.125 C4.25625 26.74375 3.6375 27.3625 3 28 C0.8828125 27.6171875 0.8828125 27.6171875 -1 27 C-1.02886537 22.68751391 -1.04675255 18.37505238 -1.0625 14.0625 C-1.07087891 12.83080078 -1.07925781 11.59910156 -1.08789062 10.33007812 C-1.09111328 9.16025391 -1.09433594 7.99042969 -1.09765625 6.78515625 C-1.10289307 5.70113525 -1.10812988 4.61711426 -1.11352539 3.50024414 C-1 1 -1 1 0 0 Z " fill="#F7F7F7" transform="translate(923,477)"/>
<path d="M0 0 C1.81975304 0.3147843 3.63114518 0.67821815 5.4375 1.0625 C11.44110721 2.14818226 16.17570838 1.67512812 22 0 C22.33 1.65 22.66 3.3 23 5 C18.1773868 9.01884433 15.12919089 11.29287344 8.75 11.125 C7.85796875 11.10695313 6.9659375 11.08890625 6.046875 11.0703125 C5.03367187 11.03550781 5.03367187 11.03550781 4 11 C4.33 13.64 4.66 16.28 5 19 C5.66 18.67 6.32 18.34 7 18 C11.70697417 17.42574915 15.12144792 17.54445448 19.375 19.75 C22.92758739 22.7950749 25.34444732 25.28002068 26 30 C26.36307314 35.62763372 26.22258504 39.16612244 23 44 C19.00325712 48.04042313 15.41007672 50.12471251 9.6875 50.3125 C5.06085507 50.244793 2.498067 49.16491776 -1 46 C-3.54054608 42.31211053 -4.05040115 40.62497423 -3.6875 36.125 C-3.460625 35.09375 -3.23375 34.0625 -3 33 C2.43440487 31.67158992 2.43440487 31.67158992 4.9375 33.125 C6 35 6 35 5.8125 37.5625 C5 40 5 40 3 42 C6.46923881 44.31282587 7.92205575 44.42478586 12 44 C14.55949546 42.14657225 14.97918798 41.06243607 16 38 C16.50156459 32.30917105 16.7258549 27.65731863 13 23 C8.43441675 23.40794691 8.43441675 23.40794691 4.875 26.125 C4.25625 26.74375 3.6375 27.3625 3 28 C0.8828125 27.6171875 0.8828125 27.6171875 -1 27 C-1.02886537 22.68751391 -1.04675255 18.37505238 -1.0625 14.0625 C-1.07087891 12.83080078 -1.07925781 11.59910156 -1.08789062 10.33007812 C-1.09111328 9.16025391 -1.09433594 7.99042969 -1.09765625 6.78515625 C-1.10289307 5.70113525 -1.10812988 4.61711426 -1.11352539 3.50024414 C-1 1 -1 1 0 0 Z " fill="#F8F8F8" transform="translate(906,985)"/>
<path d="M0 0 C1.81975304 0.3147843 3.63114518 0.67821815 5.4375 1.0625 C11.44110721 2.14818226 16.17570838 1.67512812 22 0 C22.33 1.32 22.66 2.64 23 4 C21.90081184 4.98475214 20.7954398 5.96260473 19.6875 6.9375 C19.07261719 7.48277344 18.45773437 8.02804688 17.82421875 8.58984375 C14.7418796 10.97255132 12.06732588 11.11691777 8.3125 11.0625 C7.10013672 11.04896484 7.10013672 11.04896484 5.86328125 11.03515625 C4.94095703 11.01775391 4.94095703 11.01775391 4 11 C4 13.64 4 16.28 4 19 C4.66 18.67 5.32 18.34 6 18 C10.47884596 17.58778763 14.6311333 17.49411448 18.875 19.0625 C22.64982872 22.5042556 24.6564559 25.64030314 25.38671875 30.65625 C25.63815154 36.96808014 24.95580117 41.02989084 21 46 C16.2961492 49.66900362 12.41053278 50.75517301 6.44140625 50.52734375 C2.32506618 49.63821429 -0.4137198 47.25064575 -3 44 C-4.17353189 40.47940432 -4.20146402 37.693507 -4 34 C-2 32 -2 32 0.5 31.75 C3 32 3 32 5 34 C5.34490322 38.05261287 5.30163882 39.54754176 3 43 C5.91708924 44.98362069 7.12380904 44.9876191 10.75 44.625 C11.8225 44.41875 12.895 44.2125 14 44 C15.09848394 40.4517225 15.13341955 37.13789215 15.125 33.4375 C15.12757813 32.30183594 15.13015625 31.16617188 15.1328125 29.99609375 C15.1347228 26.94766002 15.1347228 26.94766002 14 24 C10.71249056 22.96678275 9.42202124 22.79858077 6.25 24.3125 C3.91148898 25.80434405 3.91148898 25.80434405 3 28 C1.68 27.67 0.36 27.34 -1 27 C-1.02886537 22.68751391 -1.04675255 18.37505238 -1.0625 14.0625 C-1.07087891 12.83080078 -1.07925781 11.59910156 -1.08789062 10.33007812 C-1.09111328 9.16025391 -1.09433594 7.99042969 -1.09765625 6.78515625 C-1.10289307 5.70113525 -1.10812988 4.61711426 -1.11352539 3.50024414 C-1 1 -1 1 0 0 Z " fill="#F8F8F8" transform="translate(933,3019)"/>
<path d="M0 0 C1.66611905 -0.042721 3.33382885 -0.04063832 5 0 C5.33 0.33 5.66 0.66 6 1 C7.77869726 1.15764405 9.56318476 1.25100677 11.34765625 1.31640625 C12.42724609 1.35830078 13.50683594 1.40019531 14.61914062 1.44335938 C16.32360352 1.50233398 16.32360352 1.50233398 18.0625 1.5625 C19.20267578 1.60568359 20.34285156 1.64886719 21.51757812 1.69335938 C24.34492195 1.79982839 27.17235738 1.90184207 30 2 C29.57808435 7.6398929 27.40077565 10.7410015 24.0625 15.0625 C17.60956519 23.5416746 16.55249824 30.0497234 15.7890625 40.60351562 C15.71429687 41.52197266 15.63953125 42.44042969 15.5625 43.38671875 C15.47162109 44.64295044 15.47162109 44.64295044 15.37890625 45.92456055 C15 48 15 48 13 50 C9.875 50.125 9.875 50.125 7 50 C4.10480397 45.45508849 5.28140325 41.58873037 6.1796875 36.51171875 C8.47443853 26.68799884 12.99270805 19.0097226 19 11 C13.72 11 8.44 11 3 11 C2.67 12.98 2.34 14.96 2 17 C0.35 17 -1.3 17 -3 17 C-2.69188262 14.54104382 -2.37871012 12.08291693 -2.0625 9.625 C-1.97548828 8.92632812 -1.88847656 8.22765625 -1.79882812 7.5078125 C-1.11328125 2.2265625 -1.11328125 2.2265625 0 0 Z " fill="#F6F6F6" transform="translate(887,477)"/>
<path d="M0 0 C1.66994043 0.31652466 3.33602303 0.65348947 5 1 C6.91042776 1.14156928 8.82395604 1.24474702 10.73828125 1.31640625 C11.80498047 1.35830078 12.87167969 1.40019531 13.97070312 1.44335938 C15.07349609 1.48267578 16.17628906 1.52199219 17.3125 1.5625 C18.99569336 1.62727539 18.99569336 1.62727539 20.71289062 1.69335938 C23.47514569 1.79914787 26.2374863 1.90123672 29 2 C29.2963585 7.23325745 27.31759091 9.766692 24.1875 13.75 C17.43107029 22.86406251 15.67823319 29.86732477 15.37670898 41.1496582 C15.25704283 44.93565511 15.15034739 46.77447892 13 50 C10 50.3125 10 50.3125 7 50 C5 48 5 48 4.84765625 45.3828125 C5.71592645 32.21667885 10.73817778 22.821539 18 12 C13.05 11.67 8.1 11.34 3 11 C2.67 12.98 2.34 14.96 2 17 C0.35 17 -1.3 17 -3 17 C-2.69268013 14.35346869 -2.37940678 11.707885 -2.0625 9.0625 C-1.97548828 8.30775391 -1.88847656 7.55300781 -1.79882812 6.77539062 C-1.11328125 1.11328125 -1.11328125 1.11328125 0 0 Z " fill="#F7F7F7" transform="translate(914,3528)"/>
<path d="M0 0 C0.721875 0.144375 1.44375 0.28875 2.1875 0.4375 C3.5796875 0.7159375 3.5796875 0.7159375 5 1 C6.17405396 1.25511353 6.17405396 1.25511353 7.37182617 1.51538086 C9.89935071 1.98144089 12.29805436 2.20055729 14.86328125 2.31640625 C16.19262695 2.37924805 16.19262695 2.37924805 17.54882812 2.44335938 C18.9168457 2.50233398 18.9168457 2.50233398 20.3125 2.5625 C21.70952148 2.62727539 21.70952148 2.62727539 23.13476562 2.69335938 C25.42304454 2.79897225 27.71142372 2.90107752 30 3 C29.49696805 7.66605501 27.35629782 10.71022065 24.625 14.375 C17.40064067 24.11623291 15.93084221 32.64686437 15.37890625 44.6015625 C15 48 15 48 13 51 C9.875 51.1875 9.875 51.1875 7 51 C4.20095235 46.23727938 4.98560675 42.26447881 6 37 C8.57340317 27.62641228 13.20183137 19.73089151 19 12 C14.05 12 9.1 12 4 12 C3.34 13.98 2.68 15.96 2 18 C0.35 18 -1.3 18 -3 18 C-2.69112547 15.56199034 -2.37805338 13.12464633 -2.0625 10.6875 C-1.97548828 9.99720703 -1.88847656 9.30691406 -1.79882812 8.59570312 C-1.40789865 5.59857712 -0.9584996 2.87549881 0 0 Z " fill="#F7F7F7" transform="translate(1777,2129)"/>
<path d="M0 0 C1.0828125 0.2165625 1.0828125 0.2165625 2.1875 0.4375 C3.5796875 0.7159375 3.5796875 0.7159375 5 1 C5.680625 1.165 6.36125 1.33 7.0625 1.5 C11.29552972 2.2205157 15.52726224 2.36757121 19.8125 2.5625 C20.69615234 2.60568359 21.57980469 2.64886719 22.49023438 2.69335938 C24.65999623 2.79891536 26.8299791 2.89991071 29 3 C28.58938839 8.67776749 27.25846503 11.53600778 23.625 15.875 C16.85812104 24.45159483 15.66183306 31.44894189 15.37695312 42.14916992 C15.25688238 45.93525782 15.15043338 47.77434993 13 51 C10 51.375 10 51.375 7 51 C3.79198223 46.18797335 5.03085524 41.52795071 6 36 C8.57950231 26.62706704 13.02377259 19.59689924 19 12 C13.72 11.67 8.44 11.34 3 11 C2.67 13.31 2.34 15.62 2 18 C0.68 18 -0.64 18 -2 18 C-1.85860519 15.74971671 -1.71171997 13.49977794 -1.5625 11.25 C-1.48128906 9.99703125 -1.40007812 8.7440625 -1.31640625 7.453125 C-1.07484478 4.81682447 -0.75716066 2.51962706 0 0 Z " fill="#F7F7F7" transform="translate(278,2129)"/>
<path d="M0 0 C0.76166977 0.00222061 1.52333954 0.00444122 2.30809021 0.00672913 C3.16890701 0.00680466 4.02972382 0.00688019 4.91662598 0.00695801 C5.8520372 0.01211929 6.78744843 0.01728058 7.75120544 0.02259827 C8.70422043 0.02401321 9.65723541 0.02542816 10.63912964 0.02688599 C13.69605085 0.032503 16.75289996 0.04505836 19.80979919 0.05775452 C21.87685543 0.06276733 23.94391281 0.06733061 26.01097107 0.07142639 C31.08977507 0.08247795 36.16852489 0.09975397 41.24729919 0.12025452 C41.80979919 2.05775452 41.80979919 2.05775452 42.24729919 4.12025452 C41.24729919 5.12025452 41.24729919 5.12025452 39.49459839 5.24050903 C38.73292862 5.23828842 37.97125885 5.23606781 37.18650818 5.23377991 C36.32569138 5.23370438 35.46487457 5.23362885 34.57797241 5.23355103 C33.64256119 5.22838974 32.70714996 5.22322845 31.74339294 5.21791077 C30.79037796 5.21649582 29.83736298 5.21508087 28.85546875 5.21362305 C25.79854754 5.20800604 22.74169843 5.19545067 19.68479919 5.18275452 C17.61774296 5.17774171 15.55068558 5.17317842 13.48362732 5.16908264 C8.40482332 5.15803108 3.32607349 5.14075506 -1.75270081 5.12025452 C-2.31520081 3.18275452 -2.31520081 3.18275452 -2.75270081 1.12025452 C-1.75270081 0.12025452 -1.75270081 0.12025452 0 0 Z " fill="#F7F7F7" transform="translate(806.7527008056641,3555.8797454833984)"/>
<path d="M0 0 C0.76166977 0.00222061 1.52333954 0.00444122 2.30809021 0.00672913 C3.16890701 0.00680466 4.02972382 0.00688019 4.91662598 0.00695801 C5.8520372 0.01211929 6.78744843 0.01728058 7.75120544 0.02259827 C8.70422043 0.02401321 9.65723541 0.02542816 10.63912964 0.02688599 C13.69605085 0.032503 16.75289996 0.04505836 19.80979919 0.05775452 C21.87685543 0.06276733 23.94391281 0.06733061 26.01097107 0.07142639 C31.08977507 0.08247795 36.16852489 0.09975397 41.24729919 0.12025452 C41.74229919 1.60525452 41.74229919 1.60525452 42.24729919 3.12025452 C41.91729919 3.78025452 41.58729919 4.44025452 41.24729919 5.12025452 C27.05729919 5.12025452 12.86729919 5.12025452 -1.75270081 5.12025452 C-2.08270081 3.80025452 -2.41270081 2.48025452 -2.75270081 1.12025452 C-1.75270081 0.12025452 -1.75270081 0.12025452 0 0 Z " fill="#F8F8F8" transform="translate(824.7527008056641,3046.8797454833984)"/>
<path d="M0 0 C0.76166977 0.00222061 1.52333954 0.00444122 2.30809021 0.00672913 C3.16890701 0.00680466 4.02972382 0.00688019 4.91662598 0.00695801 C5.8520372 0.01211929 6.78744843 0.01728058 7.75120544 0.02259827 C8.70422043 0.02401321 9.65723541 0.02542816 10.63912964 0.02688599 C13.69605085 0.032503 16.75289996 0.04505836 19.80979919 0.05775452 C21.87685543 0.06276733 23.94391281 0.06733061 26.01097107 0.07142639 C31.08977507 0.08247795 36.16852489 0.09975397 41.24729919 0.12025452 C41.74229919 1.60525452 41.74229919 1.60525452 42.24729919 3.12025452 C41.91729919 3.78025452 41.58729919 4.44025452 41.24729919 5.12025452 C27.05729919 5.12025452 12.86729919 5.12025452 -1.75270081 5.12025452 C-2.08270081 3.80025452 -2.41270081 2.48025452 -2.75270081 1.12025452 C-1.75270081 0.12025452 -1.75270081 0.12025452 0 0 Z " fill="#F9F9F9" transform="translate(679.7527008056641,2156.8797454833984)"/>
<path d="M0 0 C14.52 0 29.04 0 44 0 C43.67 1.65 43.34 3.3 43 5 C29.14 5 15.28 5 1 5 C0.67 3.35 0.34 1.7 0 0 Z " fill="#F4F4F4" transform="translate(169,2158)"/>
<path d="M0 0 C0.92607559 -0.00570007 1.85215118 -0.01140015 2.80628967 -0.01727295 C4.76920422 -0.02673751 6.73213476 -0.03326269 8.69506836 -0.03710938 C11.70649748 -0.04682288 14.71724665 -0.07783565 17.72851562 -0.109375 C19.63150634 -0.11590385 21.53450197 -0.12115479 23.4375 -0.125 C24.34273911 -0.1373468 25.24797821 -0.1496936 26.1806488 -0.16241455 C27.01814163 -0.15941345 27.85563446 -0.15641235 28.71850586 -0.15332031 C29.82650795 -0.15878876 29.82650795 -0.15878876 30.95689392 -0.16436768 C32.78515625 0.203125 32.78515625 0.203125 34.78515625 3.203125 C34.45515625 3.863125 34.12515625 4.523125 33.78515625 5.203125 C19.59515625 5.203125 5.40515625 5.203125 -9.21484375 5.203125 C-9.54484375 3.883125 -9.87484375 2.563125 -10.21484375 1.203125 C-8.04761836 -0.96410039 -3.01248528 0.01411133 0 0 Z " fill="#FAFAFA" transform="translate(451.21484375,2156.796875)"/>
<path d="M0 0 C14.52 0 29.04 0 44 0 C44 1.32 44 2.64 44 4 C29.48 4 14.96 4 0 4 C0 2.68 0 1.36 0 0 Z " fill="#FCFCFC" transform="translate(805,2539)"/>
<path d="M0 0 C2 2 2 2 2.375 4.4375 C2 7 2 7 0.3125 8.875 C-2 10 -2 10 -4.625 10 C-7 9 -7 9 -8.4375 6.6875 C-9 4 -9 4 -8.25 1.75 C-5.81345035 -1.66116951 -3.74438057 -1.02970466 0 0 Z " fill="#EFEFEF" transform="translate(893,1024)"/>
<path d="M0 0 C3.07921132 -0.25660094 5.21136993 -0.39431504 8 1 C8.8125 3.3125 8.8125 3.3125 9 6 C7.5625 8.3125 7.5625 8.3125 6 10 C3.69 9.67 1.38 9.34 -1 9 C-1.625 6.1875 -1.625 6.1875 -2 3 C-1.34 2.01 -0.68 1.02 0 0 Z " fill="#F2F2F2" transform="translate(768,2168)"/>
<path d="M0 0 C2.3125 1.1875 2.3125 1.1875 3.3125 2.1875 C3.60681219 4.9834658 3.65022308 6.62462819 2.1875 9.0625 C0.3125 10.1875 0.3125 10.1875 -2.8125 9.9375 C-5.6875 9.1875 -5.6875 9.1875 -6.6875 8.1875 C-6.72842937 5.85452567 -6.72991723 3.52044775 -6.6875 1.1875 C-4.01153344 -0.5964777 -3.15846846 -0.95488581 0 0 Z " fill="#F3F3F3" transform="translate(1763.6875,2168.8125)"/>
<path d="M0 0 C3 0.25 3 0.25 5 2.25 C5.25 5.25 5.25 5.25 5 8.25 C4.34 8.91 3.68 9.57 3 10.25 C-0.625 9.875 -0.625 9.875 -4 9.25 C-4.625 5.875 -4.625 5.875 -5 2.25 C-3 0.25 -3 0.25 0 0 Z " fill="#F6F6F6" transform="translate(1253,2167.75)"/>
<path d="M0 0 C3 0.25 3 0.25 5 2.25 C4.625 5.875 4.625 5.875 4 9.25 C0.625 9.875 0.625 9.875 -3 10.25 C-5 8.25 -5 8.25 -5.25 5.25 C-4.90584825 1.120179 -4.129821 0.34415175 0 0 Z " fill="#F7F7F7" transform="translate(535,2167.75)"/>
<path d="M0 0 C1.9375 1.6875 1.9375 1.6875 3 4 C2.33228817 6.39263407 1.77902615 8.22097385 0 10 C-2.7959658 10.29431219 -4.43712819 10.33772308 -6.875 8.875 C-8 7 -8 7 -7.8125 3.875 C-7.544375 2.92625 -7.27625 1.9775 -7 1 C-4.4254716 -0.2872642 -2.85291355 -0.34791629 0 0 Z " fill="#F7F7F7" transform="translate(901,3567)"/>
<path d="M0 0 C2.9375 0.875 2.9375 0.875 4.9375 3.875 C4.57861965 6.83576291 4.09091979 7.72158021 1.9375 9.875 C-1.6875 9.5 -1.6875 9.5 -5.0625 8.875 C-6.38528481 3.46360759 -6.38528481 3.46360759 -5 0.9375 C-3.0625 -0.125 -3.0625 -0.125 0 0 Z " fill="#F5F5F5" transform="translate(899.0625,2549.125)"/>
<path d="M0 0 C2.39263407 0.66771183 4.22097385 1.22097385 6 3 C6.29431219 5.7959658 6.33772308 7.43712819 4.875 9.875 C2.07848948 11.55290631 0.06309468 10.74875648 -3 10 C-3.33 7.69 -3.66 5.38 -4 3 C-2.3125 1.375 -2.3125 1.375 0 0 Z " fill="#F5F5F5" transform="translate(262,2168)"/>
<path d="M0 0 C3.625 0.375 3.625 0.375 7 1 C8.33157895 6.44736842 8.33157895 6.44736842 6.875 8.875 C4.40522151 10.3568671 2.83386167 10.3633156 0 10 C-2 8 -2 8 -2.25 5 C-2 2 -2 2 0 0 Z " fill="#F6F6F6" transform="translate(869,1532)"/>
<path d="M0 0 C3 0.25 3 0.25 5 2.25 C5.3633156 5.08386167 5.3568671 6.65522151 3.875 9.125 C2 10.25 2 10.25 -1.125 10 C-4 9.25 -4 9.25 -5 8.25 C-5.1875 5.3125 -5.1875 5.3125 -5 2.25 C-3 0.25 -3 0.25 0 0 Z " fill="#F8F8F8" transform="translate(872,515.75)"/>
<path d="M0 0 C3.0625 0.125 3.0625 0.125 5.0625 1.125 C5.8125 3.5 5.8125 3.5 6.0625 6.125 C4.0625 9.125 4.0625 9.125 1.6875 10.0625 C-0.9375 10.125 -0.9375 10.125 -3.3125 8.5 C-4.9375 6.125 -4.9375 6.125 -4.75 3.4375 C-3.59599387 0.15302102 -3.59599387 0.15302102 0 0 Z " fill="#F6F6F6" transform="translate(915.9375,3057.875)"/>
<path d="M0 0 C2 2 2 2 2.25 5 C2 8 2 8 0 10 C-2.4375 10.4375 -2.4375 10.4375 -5 10 C-7.08199243 7.50160908 -8.08664248 6.03970981 -7.8125 2.75 C-6.22196291 -0.67577219 -3.38598072 -0.25394855 0 0 Z " fill="#F8F8F8" transform="translate(1528,2168)"/>
</svg>
