<svg version="1.0" xmlns="http://www.w3.org/2000/svg" width="512.000000ptpx" height="512.000000ptpx" viewBox="0 0 512.000000 512.000000" preserveAspectRatio="xMidYMid meet" transform="rotate(0) scale(1, 1)">

<g transform="translate(0.000000,512.000000) scale(0.100000,-0.100000)" fill="#ffffff" stroke="none">
<path d="M3385 4161 c-26 -11 -152 -146 -235 -251 -36 -45 -78 -97 -94 -116&#xA;l-28 -34 -426 0 c-328 0 -440 -3 -486 -14 -34 -8 -92 -19 -131 -26 -89 -16&#xA;-199 -52 -289 -94 -97 -45 -137 -63 -165 -71 -39 -12 -223 -109 -275 -146 -26&#xA;-19 -58 -41 -71 -49 -74 -48 -157 -109 -205 -150 -30 -26 -68 -54 -85 -63 -79&#xA;-43 -190 -151 -226 -222 -5 -11 -21 -38 -34 -60 -13 -22 -33 -56 -44 -76 -11&#xA;-19 -27 -42 -37 -50 -16 -13 -74 -127 -74 -145 0 -4 -10 -18 -22 -32 -45 -47&#xA;-26 -129 38 -165 40 -22 137 -100 166 -133 16 -18 59 -70 96 -115 91 -111 187&#xA;-183 381 -281 62 -31 118 -61 125 -66 6 -5 22 -13 36 -17 14 -4 45 -16 70 -28&#xA;25 -11 66 -27 92 -36 l48 -16 -43 -55 c-24 -30 -60 -84 -81 -119 -26 -43 -49&#xA;-67 -70 -76 -50 -21 -71 -51 -71 -101 0 -34 6 -49 28 -71 24 -24 35 -28 85&#xA;-28 57 0 60 2 125 59 37 32 67 62 67 67 0 16 63 114 109 169 25 30 54 72 64&#xA;94 10 22 29 55 43 73 13 17 24 34 24 37 0 15 72 116 98 138 16 13 50 57 77 98&#xA;27 41 61 84 75 97 15 12 34 37 43 55 17 36 62 96 118 161 20 23 63 78 96 122&#xA;34 44 83 106 110 137 117 137 169 202 183 228 23 41 50 81 87 122 30 35 72 95&#xA;99 143 42 75 57 102 67 114 13 16 33 48 46 76 5 12 45 60 89 108 56 62 82 98&#xA;86 123 5 22 27 56 64 97 32 34 71 80 86 102 16 22 66 76 110 120 45 44 108&#xA;111 141 150 55 64 60 73 60 117 0 38 -5 53 -26 73 -27 28 -82 40 -114 26z&#xA;m-543 -639 c-9 -16 -36 -50 -60 -77 l-42 -48 -51 11 c-89 21 -199 15 -276 -14&#xA;-37 -14 -82 -29 -99 -33 -78 -20 -239 -112 -299 -171 -71 -69 -165 -287 -165&#xA;-384 -1 -22 -9 -59 -20 -81 -15 -31 -19 -62 -20 -137 0 -110 12 -151 70 -238&#xA;42 -63 40 -72 -27 -144 -43 -46 -83 -101 -83 -114 0 -5 -10 -17 -21 -28 -12&#xA;-10 -47 -53 -78 -95 l-57 -77 -119 48 c-66 27 -176 77 -245 112 -192 98 -251&#xA;142 -335 247 -68 85 -132 152 -188 196 l-38 30 15 44 c9 24 28 58 43 77 51 62&#xA;73 92 73 102 0 5 16 30 35 55 19 25 35 50 35 56 0 13 104 101 119 101 6 0 31&#xA;18 55 40 24 22 48 40 53 40 5 0 18 9 28 20 16 18 68 56 150 110 13 8 44 30 69&#xA;48 26 17 49 32 52 32 2 0 21 11 42 24 20 12 48 27 62 31 14 4 32 13 40 20 8 6&#xA;42 22 75 35 33 13 92 38 130 55 39 18 87 39 107 49 43 19 182 55 218 56 14 1&#xA;48 7 75 15 38 10 130 14 372 14 l323 1 -18 -28z"/>
<path d="M3407 3562 c-31 -32 -57 -62 -57 -67 0 -4 -7 -16 -16 -26 -15 -16&#xA;-13 -19 30 -38 24 -12 47 -21 50 -21 2 0 42 -22 89 -50 47 -27 88 -50 92 -50&#xA;5 0 33 -17 63 -37 30 -21 68 -46 85 -56 86 -52 189 -154 382 -378 39 -45 97&#xA;-110 130 -146 32 -35 77 -92 100 -125 33 -51 53 -71 83 -84 2 -1 -6 -17 -17&#xA;-35 -12 -19 -24 -41 -28 -49 -48 -102 -112 -189 -139 -190 -6 0 -19 -9 -28&#xA;-19 -10 -11 -28 -22 -41 -25 -13 -3 -42 -28 -65 -55 -22 -28 -51 -53 -63 -57&#xA;-12 -4 -41 -22 -65 -39 -23 -18 -86 -50 -140 -70 -53 -21 -115 -46 -137 -56&#xA;-22 -10 -76 -32 -120 -49 -44 -18 -104 -43 -133 -56 -29 -13 -55 -24 -58 -24&#xA;-2 0 -57 -21 -122 -47 l-117 -47 -413 -4 c-349 -3 -424 -1 -480 12 -37 8 -92&#xA;20 -122 26 -30 5 -72 14 -92 19 -37 9 -37 9 -60 -38 -12 -25 -35 -65 -51 -87&#xA;-16 -23 -26 -47 -23 -53 9 -13 55 -26 256 -68 75 -16 141 -18 555 -18 l470 0&#xA;85 29 c47 16 90 32 95 36 6 4 62 26 125 50 63 23 138 53 165 65 28 13 61 26&#xA;75 30 13 4 56 22 95 40 38 17 86 38 105 45 71 27 138 59 145 69 3 6 26 20 50&#xA;31 24 11 70 45 101 75 30 30 59 55 63 55 4 0 16 9 26 20 10 11 22 20 27 20 19&#xA;0 119 82 135 112 183 327 189 344 156 416 -18 41 -61 92 -77 92 -6 0 -27 23&#xA;-46 52 -19 29 -76 97 -126 153 -51 55 -116 132 -146 172 -76 101 -384 393&#xA;-414 393 -5 0 -38 20 -74 45 -36 25 -70 45 -75 45 -6 0 -35 16 -64 35 -43 29&#xA;-152 85 -164 85 -1 0 -28 -26 -60 -58z"/>
<path d="M3124 3168 c-70 -74 -110 -131 -161 -229 -7 -15 -20 -32 -28 -39 -8&#xA;-7 -15 -17 -15 -22 0 -6 -22 -36 -50 -68 -27 -32 -50 -62 -50 -67 0 -6 -9 -18&#xA;-20 -28 -11 -10 -20 -24 -20 -31 0 -7 -24 -41 -52 -75 -29 -34 -69 -83 -88&#xA;-109 -19 -25 -68 -85 -107 -132 -40 -47 -73 -90 -73 -96 0 -6 -18 -26 -40 -43&#xA;-22 -18 -40 -37 -40 -43 0 -6 -23 -38 -50 -71 l-50 -60 42 -20 c57 -27 177&#xA;-69 259 -90 51 -13 97 -16 215 -13 159 4 218 18 354 83 98 46 114 58 170 114&#xA;43 43 60 71 78 123 22 62 24 89 29 338 6 243 4 276 -12 330 -14 46 -29 70 -60&#xA;99 -29 27 -45 51 -49 76 -8 43 -68 111 -106 120 -21 5 -34 -3 -76 -47z"/>
</g>
</svg>