<svg version="1.0" xmlns="http://www.w3.org/2000/svg" width="512.000000ptpx" height="512.000000ptpx" viewBox="0 0 512.000000 512.000000" preserveAspectRatio="xMidYMid meet" transform="rotate(0) scale(1, 1)">

<g transform="translate(0.000000,512.000000) scale(0.100000,-0.100000)" fill="#ffffff" stroke="none">
<path d="M2110 3746 c-30 -8 -86 -19 -125 -26 -89 -16 -199 -52 -289 -94 -97&#xA;-45 -137 -63 -165 -71 -39 -12 -223 -109 -275 -146 -26 -19 -58 -41 -71 -49&#xA;-74 -48 -157 -109 -205 -150 -30 -26 -68 -54 -85 -63 -79 -43 -190 -151 -226&#xA;-222 -5 -11 -21 -38 -34 -60 -13 -22 -33 -56 -44 -76 -11 -19 -27 -42 -37 -50&#xA;-16 -13 -74 -127 -74 -145 0 -4 -10 -18 -22 -32 -45 -47 -26 -129 38 -165 40&#xA;-22 137 -100 166 -133 16 -18 59 -70 96 -115 91 -111 187 -183 381 -281 62&#xA;-31 118 -61 125 -66 6 -5 29 -15 51 -22 22 -7 45 -16 50 -20 6 -4 37 -17 70&#xA;-29 33 -12 69 -26 80 -31 11 -5 74 -30 140 -56 66 -25 134 -53 150 -61 49 -24&#xA;186 -70 245 -82 30 -6 91 -19 135 -29 69 -15 142 -17 550 -17 l470 0 85 29&#xA;c47 16 90 32 95 36 6 4 62 26 125 50 63 23 138 53 165 65 28 13 61 26 75 30&#xA;13 4 56 22 95 40 38 17 86 38 105 45 71 27 138 59 145 69 3 6 26 20 50 31 24&#xA;11 70 45 101 75 30 30 59 55 63 55 4 0 16 9 26 20 10 11 22 20 27 20 19 0 119&#xA;82 135 112 183 327 189 344 156 416 -18 41 -61 92 -77 92 -6 0 -27 23 -46 52&#xA;-19 29 -76 97 -126 153 -51 55 -116 132 -146 172 -76 101 -384 393 -414 393&#xA;-5 0 -38 20 -74 45 -36 25 -70 45 -75 45 -6 0 -34 16 -64 35 -60 40 -161 88&#xA;-240 116 -30 11 -64 25 -75 33 -12 7 -59 26 -106 42 l-85 28 -480 3 c-377 2&#xA;-492 -1 -535 -11z m1105 -254 c72 -29 144 -60 162 -68 17 -7 33 -14 36 -14 3&#xA;0 43 -22 90 -50 47 -27 88 -50 92 -50 5 0 33 -17 63 -37 30 -21 68 -46 85 -56&#xA;86 -52 189 -154 382 -378 39 -45 97 -110 130 -146 32 -35 77 -92 100 -125 33&#xA;-51 53 -71 83 -84 2 -1 -6 -17 -17 -35 -12 -19 -24 -41 -28 -49 -48 -102 -112&#xA;-189 -139 -190 -6 0 -19 -9 -28 -19 -10 -11 -28 -22 -41 -25 -13 -3 -42 -28&#xA;-65 -55 -22 -28 -51 -53 -63 -57 -12 -4 -41 -22 -65 -39 -23 -18 -86 -50 -140&#xA;-70 -53 -21 -115 -46 -137 -56 -22 -10 -76 -32 -120 -49 -44 -18 -104 -43&#xA;-133 -56 -29 -13 -55 -24 -58 -24 -2 0 -57 -21 -122 -47 l-117 -47 -430 -1&#xA;c-378 0 -440 2 -515 18 -154 33 -211 48 -258 69 -26 11 -168 69 -317 128 -455&#xA;182 -613 273 -730 419 -68 85 -132 152 -188 196 l-38 30 15 44 c9 24 28 58 43&#xA;77 51 62 73 92 73 102 0 5 16 30 35 55 19 25 35 50 35 56 0 13 104 101 119&#xA;101 6 0 31 18 55 40 24 22 48 40 53 40 5 0 18 9 28 20 16 18 68 56 150 110 13&#xA;8 44 30 69 48 26 17 49 32 52 32 2 0 21 11 42 24 20 12 48 27 62 31 14 4 32&#xA;13 40 20 8 6 42 22 75 35 33 13 92 38 130 55 39 18 87 39 107 49 43 19 182 55&#xA;218 56 14 1 48 7 75 15 40 12 133 14 485 12 l435 -2 130 -53z"/>
<path d="M2410 3394 c-36 -14 -79 -29 -96 -33 -79 -20 -239 -112 -299 -171&#xA;-71 -69 -165 -288 -165 -382 0 -21 -9 -60 -21 -85 -18 -39 -20 -61 -17 -152 3&#xA;-94 7 -113 33 -166 50 -101 161 -199 325 -288 30 -16 62 -36 71 -43 8 -8 18&#xA;-14 22 -14 3 0 34 -13 69 -29 184 -83 282 -104 464 -99 159 4 218 18 354 83&#xA;98 46 114 58 170 114 43 43 60 71 78 123 22 62 24 89 29 338 6 243 4 276 -12&#xA;330 -14 46 -29 70 -60 99 -29 27 -45 51 -49 76 -10 52 -63 106 -127 129 -29&#xA;10 -131 51 -226 92 -191 82 -279 104 -398 103 -61 0 -96 -6 -145 -25z"/>
</g>
</svg>