<?xml version="1.0" encoding="UTF-8"?>
<svg version="1.1" xmlns="http://www.w3.org/2000/svg" width="2047" height="4095">
<path d="M0 0 C675.51 0 1351.02 0 2047 0 C2047 1351.35 2047 2702.7 2047 4095 C1371.49 4095 695.98 4095 0 4095 C0 2743.65 0 1392.3 0 0 Z " fill="#3F3FFE" transform="translate(0,0)"/>
<path d="M0 0 C83.49 0 166.98 0 253 0 C253 167.97 253 335.94 253 509 C169.51 509 86.02 509 0 509 C0 341.03 0 173.06 0 0 Z " fill="#4040FF" transform="translate(513,3072)"/>
<path d="M0 0 C83.49 0 166.98 0 253 0 C253 167.97 253 335.94 253 509 C169.51 509 86.02 509 0 509 C0 341.03 0 173.06 0 0 Z " fill="#4040FF" transform="translate(257,3072)"/>
<path d="M0 0 C83.49 0 166.98 0 253 0 C253 167.97 253 335.94 253 509 C169.51 509 86.02 509 0 509 C0 341.03 0 173.06 0 0 Z " fill="#4040FF" transform="translate(1280,2560)"/>
<path d="M0 0 C83.49 0 166.98 0 253 0 C253 167.97 253 335.94 253 509 C169.51 509 86.02 509 0 509 C0 341.03 0 173.06 0 0 Z " fill="#4040FF" transform="translate(257,2560)"/>
<path d="M0 0 C83.49 0 166.98 0 253 0 C253 167.97 253 335.94 253 509 C169.51 509 86.02 509 0 509 C0 341.03 0 173.06 0 0 Z " fill="#4040FF" transform="translate(1536,1025)"/>
<path d="M0 0 C83.49 0 166.98 0 253 0 C253 167.97 253 335.94 253 509 C169.51 509 86.02 509 0 509 C0 341.03 0 173.06 0 0 Z " fill="#4040FF" transform="translate(1280,1025)"/>
<path d="M0 0 C83.49 0 166.98 0 253 0 C253 167.97 253 335.94 253 509 C169.51 509 86.02 509 0 509 C0 341.03 0 173.06 0 0 Z " fill="#4040FF" transform="translate(513,1025)"/>
<path d="M0 0 C83.49 0 166.98 0 253 0 C253 167.97 253 335.94 253 509 C169.51 509 86.02 509 0 509 C0 341.03 0 173.06 0 0 Z " fill="#4040FF" transform="translate(257,1025)"/>
<path d="M0 0 C83.49 0 166.98 0 253 0 C253 167.97 253 335.94 253 509 C169.51 509 86.02 509 0 509 C0 341.03 0 173.06 0 0 Z " fill="#4040FF" transform="translate(1280,513)"/>
<path d="M0 0 C83.49 0 166.98 0 253 0 C253 167.97 253 335.94 253 509 C169.51 509 86.02 509 0 509 C0 341.03 0 173.06 0 0 Z " fill="#4040FF" transform="translate(257,513)"/>
<path d="M0 0 C675.51 0 1351.02 0 2047 0 C2047 1351.35 2047 2702.7 2047 4095 C1371.49 4095 695.98 4095 0 4095 C0 2743.65 0 1392.3 0 0 Z M1 1 C1 169.3 1 337.6 1 511 C84.82 511 168.64 511 255 511 C255 342.7 255 174.4 255 1 C171.18 1 87.36 1 1 1 Z M257 1 C257 169.3 257 337.6 257 511 C340.49 511 423.98 511 510 511 C510 342.7 510 174.4 510 1 C426.51 1 343.02 1 257 1 Z M513 1 C513 169.3 513 337.6 513 511 C596.49 511 679.98 511 766 511 C766 342.7 766 174.4 766 1 C682.51 1 599.02 1 513 1 Z M768 1 C768 169.3 768 337.6 768 511 C851.82 511 935.64 511 1022 511 C1022 342.7 1022 174.4 1022 1 C938.18 1 854.36 1 768 1 Z M1024 1 C1024 169.3 1024 337.6 1024 511 C1107.82 511 1191.64 511 1278 511 C1278 342.7 1278 174.4 1278 1 C1194.18 1 1110.36 1 1024 1 Z M1280 1 C1280 169.3 1280 337.6 1280 511 C1363.49 511 1446.98 511 1533 511 C1533 342.7 1533 174.4 1533 1 C1449.51 1 1366.02 1 1280 1 Z M1536 1 C1536 169.3 1536 337.6 1536 511 C1619.49 511 1702.98 511 1789 511 C1789 342.7 1789 174.4 1789 1 C1705.51 1 1622.02 1 1536 1 Z M1791 1 C1791 169.3 1791 337.6 1791 511 C1874.82 511 1958.64 511 2045 511 C2045 342.7 2045 174.4 2045 1 C1961.18 1 1877.36 1 1791 1 Z M1 513 C1 680.97 1 848.94 1 1022 C84.82 1022 168.64 1022 255 1022 C255 854.03 255 686.06 255 513 C171.18 513 87.36 513 1 513 Z M257 513 C257 680.97 257 848.94 257 1022 C340.49 1022 423.98 1022 510 1022 C510 854.03 510 686.06 510 513 C426.51 513 343.02 513 257 513 Z M513 513 C513 681.3 513 849.6 513 1023 C596.49 1023 679.98 1023 766 1023 C766 854.7 766 686.4 766 513 C682.51 513 599.02 513 513 513 Z M768 513 C768 680.97 768 848.94 768 1022 C851.82 1022 935.64 1022 1022 1022 C1022 854.03 1022 686.06 1022 513 C938.18 513 854.36 513 768 513 Z M1024 513 C1024 680.97 1024 848.94 1024 1022 C1107.82 1022 1191.64 1022 1278 1022 C1278 854.03 1278 686.06 1278 513 C1194.18 513 1110.36 513 1024 513 Z M1280 513 C1280 680.97 1280 848.94 1280 1022 C1363.49 1022 1446.98 1022 1533 1022 C1533 854.03 1533 686.06 1533 513 C1449.51 513 1366.02 513 1280 513 Z M1536 513 C1536 681.3 1536 849.6 1536 1023 C1619.49 1023 1702.98 1023 1789 1023 C1789 854.7 1789 686.4 1789 513 C1705.51 513 1622.02 513 1536 513 Z M1791 513 C1791 680.97 1791 848.94 1791 1022 C1874.82 1022 1958.64 1022 2045 1022 C2045 854.03 2045 686.06 2045 513 C1961.18 513 1877.36 513 1791 513 Z M1 1025 C1 1192.97 1 1360.94 1 1534 C84.82 1534 168.64 1534 255 1534 C255 1366.03 255 1198.06 255 1025 C171.18 1025 87.36 1025 1 1025 Z M257 1025 C257 1192.97 257 1360.94 257 1534 C340.49 1534 423.98 1534 510 1534 C510 1366.03 510 1198.06 510 1025 C426.51 1025 343.02 1025 257 1025 Z M513 1025 C513 1192.97 513 1360.94 513 1534 C596.49 1534 679.98 1534 766 1534 C766 1366.03 766 1198.06 766 1025 C682.51 1025 599.02 1025 513 1025 Z M768 1025 C768 1192.97 768 1360.94 768 1534 C851.82 1534 935.64 1534 1022 1534 C1022 1366.03 1022 1198.06 1022 1025 C938.18 1025 854.36 1025 768 1025 Z M1024 1025 C1024 1192.97 1024 1360.94 1024 1534 C1107.82 1534 1191.64 1534 1278 1534 C1278 1366.03 1278 1198.06 1278 1025 C1194.18 1025 1110.36 1025 1024 1025 Z M1280 1025 C1280 1192.97 1280 1360.94 1280 1534 C1363.49 1534 1446.98 1534 1533 1534 C1533 1366.03 1533 1198.06 1533 1025 C1449.51 1025 1366.02 1025 1280 1025 Z M1536 1025 C1536 1192.97 1536 1360.94 1536 1534 C1619.49 1534 1702.98 1534 1789 1534 C1789 1366.03 1789 1198.06 1789 1025 C1705.51 1025 1622.02 1025 1536 1025 Z M1791 1025 C1791 1192.97 1791 1360.94 1791 1534 C1874.82 1534 1958.64 1534 2045 1534 C2045 1366.03 2045 1198.06 2045 1025 C1961.18 1025 1877.36 1025 1791 1025 Z M1 1536 C1 1704.3 1 1872.6 1 2046 C84.82 2046 168.64 2046 255 2046 C255 1877.7 255 1709.4 255 1536 C171.18 1536 87.36 1536 1 1536 Z M257 1536 C257 1704.3 257 1872.6 257 2046 C340.49 2046 423.98 2046 510 2046 C510 1877.7 510 1709.4 510 1536 C426.51 1536 343.02 1536 257 1536 Z M513 1536 C513 1704.3 513 1872.6 513 2046 C596.49 2046 679.98 2046 766 2046 C766 1877.7 766 1709.4 766 1536 C682.51 1536 599.02 1536 513 1536 Z M768 1536 C768 1704.3 768 1872.6 768 2046 C851.82 2046 935.64 2046 1022 2046 C1022 1877.7 1022 1709.4 1022 1536 C938.18 1536 854.36 1536 768 1536 Z M1024 1536 C1024 1704.3 1024 1872.6 1024 2046 C1107.82 2046 1191.64 2046 1278 2046 C1278 1877.7 1278 1709.4 1278 1536 C1194.18 1536 1110.36 1536 1024 1536 Z M1280 1536 C1280 1704.3 1280 1872.6 1280 2046 C1363.49 2046 1446.98 2046 1533 2046 C1533 1877.7 1533 1709.4 1533 1536 C1449.51 1536 1366.02 1536 1280 1536 Z M1536 1536 C1536 1704.3 1536 1872.6 1536 2046 C1619.49 2046 1702.98 2046 1789 2046 C1789 1877.7 1789 1709.4 1789 1536 C1705.51 1536 1622.02 1536 1536 1536 Z M1791 1536 C1791 1704.3 1791 1872.6 1791 2046 C1874.82 2046 1958.64 2046 2045 2046 C2045 1877.7 2045 1709.4 2045 1536 C1961.18 1536 1877.36 1536 1791 1536 Z M1 2048 C1 2216.3 1 2384.6 1 2558 C84.82 2558 168.64 2558 255 2558 C255 2389.7 255 2221.4 255 2048 C171.18 2048 87.36 2048 1 2048 Z M257 2048 C257 2216.3 257 2384.6 257 2558 C340.49 2558 423.98 2558 510 2558 C510 2389.7 510 2221.4 510 2048 C426.51 2048 343.02 2048 257 2048 Z M513 2048 C513 2216.3 513 2384.6 513 2558 C596.49 2558 679.98 2558 766 2558 C766 2389.7 766 2221.4 766 2048 C682.51 2048 599.02 2048 513 2048 Z M768 2048 C768 2216.3 768 2384.6 768 2558 C851.82 2558 935.64 2558 1022 2558 C1022 2389.7 1022 2221.4 1022 2048 C938.18 2048 854.36 2048 768 2048 Z M1024 2048 C1024 2216.3 1024 2384.6 1024 2558 C1107.82 2558 1191.64 2558 1278 2558 C1278 2389.7 1278 2221.4 1278 2048 C1194.18 2048 1110.36 2048 1024 2048 Z M1280 2048 C1280 2216.3 1280 2384.6 1280 2558 C1363.49 2558 1446.98 2558 1533 2558 C1533 2389.7 1533 2221.4 1533 2048 C1449.51 2048 1366.02 2048 1280 2048 Z M1536 2048 C1536 2216.3 1536 2384.6 1536 2558 C1619.49 2558 1702.98 2558 1789 2558 C1789 2389.7 1789 2221.4 1789 2048 C1705.51 2048 1622.02 2048 1536 2048 Z M1791 2048 C1791 2216.3 1791 2384.6 1791 2558 C1874.82 2558 1958.64 2558 2045 2558 C2045 2389.7 2045 2221.4 2045 2048 C1961.18 2048 1877.36 2048 1791 2048 Z M1 2560 C1 2727.97 1 2895.94 1 3069 C84.82 3069 168.64 3069 255 3069 C255 2901.03 255 2733.06 255 2560 C171.18 2560 87.36 2560 1 2560 Z M257 2560 C257 2727.97 257 2895.94 257 3069 C340.49 3069 423.98 3069 510 3069 C510 2901.03 510 2733.06 510 2560 C426.51 2560 343.02 2560 257 2560 Z M513 2560 C513 2728.3 513 2896.6 513 3070 C596.49 3070 679.98 3070 766 3070 C766 2901.7 766 2733.4 766 2560 C682.51 2560 599.02 2560 513 2560 Z M768 2560 C768 2727.97 768 2895.94 768 3069 C851.82 3069 935.64 3069 1022 3069 C1022 2901.03 1022 2733.06 1022 2560 C938.18 2560 854.36 2560 768 2560 Z M1024 2560 C1024 2727.97 1024 2895.94 1024 3069 C1107.82 3069 1191.64 3069 1278 3069 C1278 2901.03 1278 2733.06 1278 2560 C1194.18 2560 1110.36 2560 1024 2560 Z M1280 2560 C1280 2727.97 1280 2895.94 1280 3069 C1363.49 3069 1446.98 3069 1533 3069 C1533 2901.03 1533 2733.06 1533 2560 C1449.51 2560 1366.02 2560 1280 2560 Z M1536 2560 C1536 2728.3 1536 2896.6 1536 3070 C1619.49 3070 1702.98 3070 1789 3070 C1789 2901.7 1789 2733.4 1789 2560 C1705.51 2560 1622.02 2560 1536 2560 Z M1791 2560 C1791 2727.97 1791 2895.94 1791 3069 C1874.82 3069 1958.64 3069 2045 3069 C2045 2901.03 2045 2733.06 2045 2560 C1961.18 2560 1877.36 2560 1791 2560 Z M1 3072 C1 3239.97 1 3407.94 1 3581 C84.82 3581 168.64 3581 255 3581 C255 3413.03 255 3245.06 255 3072 C171.18 3072 87.36 3072 1 3072 Z M257 3072 C257 3239.97 257 3407.94 257 3581 C340.49 3581 423.98 3581 510 3581 C510 3413.03 510 3245.06 510 3072 C426.51 3072 343.02 3072 257 3072 Z M513 3072 C513 3239.97 513 3407.94 513 3581 C596.49 3581 679.98 3581 766 3581 C766 3413.03 766 3245.06 766 3072 C682.51 3072 599.02 3072 513 3072 Z M768 3072 C768 3239.97 768 3407.94 768 3581 C851.82 3581 935.64 3581 1022 3581 C1022 3413.03 1022 3245.06 1022 3072 C938.18 3072 854.36 3072 768 3072 Z M1024 3072 C1024 3239.97 1024 3407.94 1024 3581 C1107.82 3581 1191.64 3581 1278 3581 C1278 3413.03 1278 3245.06 1278 3072 C1194.18 3072 1110.36 3072 1024 3072 Z M1280 3072 C1280 3239.97 1280 3407.94 1280 3581 C1363.49 3581 1446.98 3581 1533 3581 C1533 3413.03 1533 3245.06 1533 3072 C1449.51 3072 1366.02 3072 1280 3072 Z M1536 3072 C1536 3239.97 1536 3407.94 1536 3581 C1619.49 3581 1702.98 3581 1789 3581 C1789 3413.03 1789 3245.06 1789 3072 C1705.51 3072 1622.02 3072 1536 3072 Z M1791 3072 C1791 3239.97 1791 3407.94 1791 3581 C1874.82 3581 1958.64 3581 2045 3581 C2045 3413.03 2045 3245.06 2045 3072 C1961.18 3072 1877.36 3072 1791 3072 Z M1 3583 C1 3751.3 1 3919.6 1 4093 C84.82 4093 168.64 4093 255 4093 C255 3924.7 255 3756.4 255 3583 C171.18 3583 87.36 3583 1 3583 Z M257 3583 C257 3751.3 257 3919.6 257 4093 C340.49 4093 423.98 4093 510 4093 C510 3924.7 510 3756.4 510 3583 C426.51 3583 343.02 3583 257 3583 Z M513 3583 C513 3751.3 513 3919.6 513 4093 C596.49 4093 679.98 4093 766 4093 C766 3924.7 766 3756.4 766 3583 C682.51 3583 599.02 3583 513 3583 Z M768 3583 C768 3751.3 768 3919.6 768 4093 C851.82 4093 935.64 4093 1022 4093 C1022 3924.7 1022 3756.4 1022 3583 C938.18 3583 854.36 3583 768 3583 Z M1024 3583 C1024 3751.3 1024 3919.6 1024 4093 C1107.82 4093 1191.64 4093 1278 4093 C1278 3924.7 1278 3756.4 1278 3583 C1194.18 3583 1110.36 3583 1024 3583 Z M1280 3583 C1280 3751.3 1280 3919.6 1280 4093 C1363.49 4093 1446.98 4093 1533 4093 C1533 3924.7 1533 3756.4 1533 3583 C1449.51 3583 1366.02 3583 1280 3583 Z M1536 3583 C1536 3751.3 1536 3919.6 1536 4093 C1619.49 4093 1702.98 4093 1789 4093 C1789 3924.7 1789 3756.4 1789 3583 C1705.51 3583 1622.02 3583 1536 3583 Z M1791 3583 C1791 3751.3 1791 3919.6 1791 4093 C1874.82 4093 1958.64 4093 2045 4093 C2045 3924.7 2045 3756.4 2045 3583 C1961.18 3583 1877.36 3583 1791 3583 Z " fill="#081F93" transform="translate(0,0)"/>
<path d="M0 0 C168.96 0 337.92 0 512 0 C512 168.3 512 336.6 512 510 C511.67 510 511.34 510 511 510 C511 342.03 511 174.06 511 1 C427.51 1 344.02 1 258 1 C258 169.3 258 337.6 258 511 C341.49 511 424.98 511 511 511 C513.54788022 514.82182033 513.28166126 517.90491677 513.26171303 522.33400249 C513.26570909 523.19853461 513.26970515 524.06306672 513.27382231 524.95379677 C513.28486927 527.87669986 513.28158511 530.79941592 513.2784729 533.72233582 C513.28347164 535.82857536 513.28934619 537.93481298 513.29602563 540.04104787 C513.31189069 545.8490822 513.31525988 551.65706824 513.31667423 557.46512163 C513.32035697 563.72076519 513.33550674 569.9763819 513.34928894 576.23200989 C513.37160112 587.07704298 513.38665992 597.9220609 513.39665604 608.76711082 C513.40717252 620.14390241 513.4217981 631.52067643 513.44193649 642.89745522 C513.44318536 643.60428585 513.44443423 644.31111649 513.44572094 645.03936624 C513.45208451 648.62886238 513.45852174 652.21835838 513.46498732 655.80785433 C513.51067496 681.24583579 513.5471119 706.68382295 513.578125 732.12182617 C513.60827878 756.837655 513.64264628 781.55347213 513.68261719 806.26928711 C513.68512389 807.82294625 513.68763046 809.37660539 513.69013691 810.93026453 C513.71052475 823.55397869 513.73120394 836.17769236 513.75195378 848.80140593 C513.84773603 907.20092338 513.92222399 965.60045015 514 1024 C597.49 1024 680.98 1024 767 1024 C767 1024.33 767 1024.66 767 1025 C683.18 1025.33 599.36 1025.66 513 1026 C512.505 1277.46 512.505 1277.46 512 1534 C511.67 1534 511.34 1534 511 1534 C511 1366.03 511 1198.06 511 1025 C427.51 1025 344.02 1025 258 1025 C258.03480469 1061.72023438 258.06960938 1098.44046875 258.10546875 1136.2734375 C258.11987339 1158.07732586 258.13407563 1179.88121052 258.14449489 1201.68510056 C258.15061879 1214.46802968 258.15688271 1227.25095872 258.16357798 1240.03388757 C258.1643875 1241.58016767 258.16519261 1243.12644777 258.16599327 1244.67272788 C258.17880396 1269.34303356 258.20132286 1294.01331867 258.22889166 1318.6836119 C258.25716397 1344.02935493 258.27565041 1369.37508658 258.28174497 1394.72084512 C258.28260949 1398.29709812 258.2835864 1401.87335108 258.28463173 1405.44960403 C258.284834 1406.15349278 258.28503627 1406.85738153 258.28524467 1407.58260024 C258.28879597 1418.9336246 258.30272666 1430.28461386 258.3204961 1441.63562387 C258.33812114 1453.03489912 258.34466953 1464.43412882 258.34050413 1475.83342098 C258.33857374 1482.01482262 258.34162915 1488.19612087 258.35761642 1494.37750435 C258.37212378 1500.02762225 258.37301253 1505.67756639 258.36269668 1511.32769199 C258.36142013 1513.38020738 258.36530297 1515.43273324 258.37464955 1517.48522775 C258.38655238 1520.25859035 258.38028444 1523.03131163 258.36914349 1525.8046627 C258.37702453 1526.61602051 258.38490557 1527.42737831 258.39302543 1528.26332271 C258.37259549 1530.48788011 258.37259549 1530.48788011 258 1534 C254.88808531 1536.07460979 254.22686584 1536.25018232 250.70086575 1536.25168228 C249.3770326 1536.25950552 249.3770326 1536.25950552 248.02645534 1536.26748681 C247.05603914 1536.26302537 246.08562293 1536.25856392 245.08580017 1536.25396729 C244.05559283 1536.25708727 243.0253855 1536.26020725 241.96395975 1536.26342177 C238.49536566 1536.27142961 235.02694516 1536.26506726 231.55834961 1536.25878906 C229.07842404 1536.26149767 226.59849928 1536.26505786 224.11857605 1536.26940918 C218.07234601 1536.27760018 212.02618467 1536.27637648 205.97995728 1536.2705839 C201.06776057 1536.26607207 196.15557778 1536.26545242 191.24337959 1536.26763153 C190.19576892 1536.26809123 190.19576892 1536.26809123 189.12699439 1536.26856022 C187.70832645 1536.26919965 186.28965851 1536.26984807 184.87099058 1536.2705054 C171.5608223 1536.27621174 158.25068155 1536.26964581 144.94051779 1536.25890467 C133.51103128 1536.24996692 122.08158539 1536.25152245 110.65209961 1536.26074219 C97.38888316 1536.27143607 84.12569084 1536.27566446 70.86247069 1536.26951766 C69.44924868 1536.26888054 68.03602666 1536.2682518 66.62280464 1536.26763153 C65.92741524 1536.26732298 65.23202584 1536.26701443 64.51556404 1536.26669653 C59.60674911 1536.26496708 54.69794945 1536.26789001 49.78913689 1536.27259064 C43.1875681 1536.27877312 36.58606442 1536.27439552 29.98449898 1536.26280212 C27.55521396 1536.26014738 25.12592251 1536.2609344 22.69664001 1536.26532745 C19.39340983 1536.27075225 16.09043019 1536.26398623 12.78721619 1536.25396729 C11.81456926 1536.25842873 10.84192233 1536.26289017 9.83980125 1536.26748681 C8.95985357 1536.26227132 8.07990588 1536.25705582 7.17329311 1536.25168228 C6.41016259 1536.25135758 5.64703206 1536.25103287 4.86077636 1536.25069833 C3 1536 3 1536 1 1534 C0.80445273 1531.23512976 0.73599308 1528.57062594 0.75390434 1525.8046627 C0.75159665 1524.94297281 0.74928897 1524.08128292 0.74691135 1523.19348121 C0.74157119 1520.27420608 0.75062854 1517.35514673 0.75949097 1514.43588257 C0.75861972 1512.33463254 0.75687024 1510.23338273 0.75431263 1508.13213408 C0.74981919 1502.33322419 0.75787007 1496.53438753 0.76786876 1490.73548698 C0.77647235 1484.49142832 0.7735853 1478.24737408 0.77206421 1472.00331116 C0.77101339 1461.17680016 0.77724098 1450.35031878 0.78853989 1439.52381516 C0.80036324 1428.16574363 0.80806961 1416.80768167 0.81024551 1405.44960403 C0.81038299 1404.744091 0.81052047 1404.03857797 0.81066212 1403.31168576 C0.81133876 1399.72892082 0.81194154 1396.14615588 0.81251587 1392.56339093 C0.81671965 1367.16920721 0.8302026 1341.77503603 0.84912109 1316.38085938 C0.86748199 1291.70670639 0.88161931 1267.03255686 0.89013672 1242.35839844 C0.890678 1240.80751657 0.89121941 1239.25663471 0.89176095 1237.70575285 C0.89613832 1225.10472424 0.90022354 1212.50369554 0.90423791 1199.90266681 C0.92302187 1141.60176601 0.96316028 1083.30089787 1 1025 C-83.15 1025 -167.3 1025 -254 1025 C-254 1024.67 -254 1024.34 -254 1024 C-170.51 1024 -87.02 1024 -1 1024 C-0.67 855.37 -0.34 686.74 0 513 C-83.82 513 -167.64 513 -254 513 C-254 512.67 -254 512.34 -254 512 C-170.51 511.67 -87.02 511.34 -1 511 C-0.67 342.37 -0.34 173.74 0 0 Z M2 1 C2 169.3 2 337.6 2 511 C85.49 511 168.98 511 255 511 C255 342.7 255 174.4 255 1 C171.51 1 88.02 1 2 1 Z M2 513 C2 680.97 2 848.94 2 1022 C85.49 1022 168.98 1022 255 1022 C255 854.03 255 686.06 255 513 C171.51 513 88.02 513 2 513 Z M258 513 C258 681.3 258 849.6 258 1023 C341.49 1023 424.98 1023 511 1023 C511 854.7 511 686.4 511 513 C427.51 513 344.02 513 258 513 Z M2 1025 C2 1192.97 2 1360.94 2 1534 C85.49 1534 168.98 1534 255 1534 C255 1366.03 255 1198.06 255 1025 C171.51 1025 88.02 1025 2 1025 Z " fill="#0E229E" transform="translate(255,0)"/>
<path d="M0 0 C1.16593127 0.00056958 1.16593127 0.00056958 2.35541672 0.00115067 C3.24943884 -0.0008402 4.14346096 -0.00283108 5.06457466 -0.00488228 C6.05746278 -0.00196961 7.05035089 0.00094305 8.07332653 0.00394398 C9.6388879 0.00265995 9.6388879 0.00265995 11.23607677 0.00134999 C14.77335057 -0.00031606 18.31057787 0.00523594 21.8478474 0.01067311 C24.41112018 0.01097918 26.97439304 0.0108464 29.53766578 0.01030785 C35.72822605 0.01010427 41.91876891 0.01440458 48.10932541 0.02080918 C55.26585951 0.02799238 62.42238852 0.028803 69.5789265 0.029594 C88.48489397 0.03485028 107.39085821 0.04881131 126.29682201 0.0616985 C189.62588451 0.092636 189.62588451 0.092636 254.23432201 0.1241985 C254.23432201 168.4241985 254.23432201 336.7241985 254.23432201 510.1241985 C253.90432201 510.1241985 253.57432201 510.1241985 253.23432201 510.1241985 C253.23432201 342.1541985 253.23432201 174.1841985 253.23432201 1.1241985 C169.74432201 1.1241985 86.25432201 1.1241985 0.23432201 1.1241985 C0.23432201 169.4241985 0.23432201 337.7241985 0.23432201 511.1241985 C83.72432201 511.1241985 167.21432201 511.1241985 253.23432201 511.1241985 C255.78220223 514.94601883 255.51598327 518.02911527 255.49603504 522.45820099 C255.50202913 523.75499916 255.50202913 523.75499916 255.50814432 525.07799527 C255.51919128 528.00089836 255.51590712 530.92361441 255.51279491 533.84653431 C255.51779365 535.95277386 255.5236682 538.05901148 255.53034765 540.16524637 C255.5462127 545.9732807 255.54958189 551.78126674 255.55099624 557.58932012 C255.55467898 563.84496368 255.56982875 570.1005804 255.58361095 576.35620838 C255.60592313 587.20124148 255.62098193 598.04625939 255.63097805 608.89130932 C255.64149453 620.26810091 255.65612011 631.64487493 255.6762585 643.02165371 C255.67750737 643.72848435 255.67875624 644.43531499 255.68004295 645.16356474 C255.68640652 648.75306087 255.69284375 652.34255687 255.69930933 655.93205283 C255.74499697 681.37003428 255.78143391 706.80802144 255.81244701 732.24602467 C255.84260079 756.96185349 255.87696829 781.67767063 255.9169392 806.39348561 C255.9194459 807.94714475 255.92195247 809.50080389 255.92445892 811.05446303 C255.94484676 823.67817718 255.96552595 836.30189086 255.98627579 848.92560443 C256.08205804 907.32512188 256.156546 965.72464864 256.23432201 1024.1241985 C339.72432201 1024.1241985 423.21432201 1024.1241985 509.23432201 1024.1241985 C509.23432201 1024.4541985 509.23432201 1024.7841985 509.23432201 1025.1241985 C425.41432201 1025.4541985 341.59432201 1025.7841985 255.23432201 1026.1241985 C254.90432201 1193.7641985 254.57432201 1361.4041985 254.23432201 1534.1241985 C253.90432201 1534.1241985 253.57432201 1534.1241985 253.23432201 1534.1241985 C253.23432201 1366.1541985 253.23432201 1198.1841985 253.23432201 1025.1241985 C169.74432201 1025.1241985 86.25432201 1025.1241985 0.23432201 1025.1241985 C0.23432201 1193.0941985 0.23432201 1361.0641985 0.23432201 1534.1241985 C-0.75567799 1534.4541985 -1.74567799 1534.7841985 -2.76567799 1535.1241985 C-2.76567799 1197.8641985 -2.76567799 860.6041985 -2.76567799 513.1241985 C-86.25567799 513.1241985 -169.74567799 513.1241985 -255.76567799 513.1241985 C-255.76567799 512.7941985 -255.76567799 512.4641985 -255.76567799 512.1241985 C-172.27567799 512.1241985 -88.78567799 512.1241985 -2.76567799 512.1241985 C-2.77727955 475.24798756 -2.78888111 438.37177662 -2.80083424 400.37810475 C-2.80563568 378.48417324 -2.81036973 356.59024215 -2.81384295 334.69631046 C-2.81588427 321.86101682 -2.81797224 309.02572319 -2.82020398 296.19042958 C-2.82047382 294.63780324 -2.82074219 293.0851769 -2.82100908 291.53255057 C-2.82527978 266.75827472 -2.83278643 241.98400115 -2.84197521 217.20972668 C-2.85139799 191.75847333 -2.85756115 166.30722125 -2.85959298 140.85596619 C-2.85988115 137.26533787 -2.86020679 133.67470955 -2.86055523 130.08408123 C-2.86065637 129.02399752 -2.86065637 129.02399752 -2.86075954 127.94249798 C-2.8619436 116.54293947 -2.86658793 105.14338483 -2.87251002 93.7438279 C-2.87838314 82.29752973 -2.88056827 70.8512366 -2.87917937 59.40493656 C-2.87853564 53.19736639 -2.87955735 46.98980766 -2.88488346 40.7822395 C-2.88971554 35.10940127 -2.89001791 29.43658228 -2.88657688 23.76374321 C-2.886151 21.7018275 -2.88744834 19.63991063 -2.89056117 17.57799722 C-2.89452194 14.7945482 -2.8924434 12.01117041 -2.88872582 9.2277227 C-2.89266634 8.00193244 -2.89266634 8.00193244 -2.89668646 6.75137874 C-2.87665498 0.20234506 -2.87665498 0.20234506 0 0 Z M0.23432201 513.1241985 C0.23432201 681.4241985 0.23432201 849.7241985 0.23432201 1023.1241985 C83.72432201 1023.1241985 167.21432201 1023.1241985 253.23432201 1023.1241985 C253.23432201 854.8241985 253.23432201 686.5241985 253.23432201 513.1241985 C169.74432201 513.1241985 86.25432201 513.1241985 0.23432201 513.1241985 Z M-4.76567799 1535.1241985 C-2.76567799 1536.1241985 -2.76567799 1536.1241985 -2.76567799 1536.1241985 Z " fill="#1124A4" transform="translate(1535.7656779885292,-0.12419849634170532)"/>
<path d="M0 0 C84.15 0 168.3 0 255 0 C255 0.33 255 0.66 255 1 C171.18 1 87.36 1 1 1 C1 169.3 1 337.6 1 511 C84.49 511 167.98 511 254 511 C254 511.33 254 511.66 254 512 C170.51 512 87.02 512 1 512 C1 680.3 1 848.6 1 1022 C84.49 1022 167.98 1022 254 1022 C254 1022.66 254 1023.32 254 1024 C170.51 1024 87.02 1024 1 1024 C1 1192.3 1 1360.6 1 1534 C84.82 1534 168.64 1534 255 1534 C255 1366.03 255 1198.06 255 1025 C255.33 1025 255.66 1025 256 1025 C256.09535458 1073.48414608 256.19070215 1121.96829218 256.28601074 1170.45243835 C256.28742048 1171.16958059 256.28883022 1171.88672283 256.29028267 1172.62559665 C256.3209172 1188.20959096 256.35155041 1203.79358527 256.38218227 1219.37757959 C256.3972033 1227.01954199 256.41222462 1234.66150439 256.42724609 1242.3034668 C256.42948836 1243.44419078 256.42948836 1243.44419078 256.43177592 1244.60795969 C256.48026167 1269.27441138 256.52876656 1293.94086304 256.57728135 1318.60731468 C256.62712054 1343.94718645 256.67694049 1369.28705827 256.7267361 1394.62693013 C256.73376321 1398.20286235 256.74079053 1401.77879457 256.74781799 1405.35472679 C256.74920114 1406.05854812 256.75058429 1406.76236944 256.75200936 1407.48751869 C256.77430924 1418.83460977 256.79662952 1430.18170081 256.81895734 1441.52879184 C256.84138303 1452.92583438 256.86378693 1464.32287697 256.88616979 1475.7199196 C256.89830639 1481.89937939 256.91045277 1488.07883916 256.92262459 1494.25829887 C256.93375232 1499.9077969 256.94485324 1505.55729497 256.9559322 1511.20679309 C256.95995952 1513.25797694 256.96399697 1515.30916076 256.96804518 1517.36034457 C256.97351802 1520.13410128 256.97895507 1522.90785807 256.98438263 1525.68161488 C256.98678915 1526.89471106 256.98678915 1526.89471106 256.98924428 1528.13231423 C257.00037588 1533.85065409 256.99577174 1539.56881814 256.98438263 1545.28715038 C256.98185007 1546.57635087 256.98185007 1546.57635087 256.97926635 1547.89159581 C256.97355112 1550.797212 256.96779337 1553.70282811 256.96203613 1556.60844421 C256.9579088 1558.70230716 256.95378407 1560.79617011 256.94966173 1562.89003307 C256.93828681 1568.66385298 256.92687481 1574.43767283 256.91545701 1580.21149266 C256.90316563 1586.43031188 256.89090827 1592.64913116 256.87864685 1598.86795044 C256.85738528 1609.64914135 256.83610219 1620.43033222 256.81480408 1631.21152306 C256.7924618 1642.52131841 256.77013172 1653.83111379 256.74781799 1665.14090919 C256.74643165 1665.84358079 256.7450453 1666.54625239 256.74361694 1667.27021707 C256.73657672 1670.83859296 256.72953672 1674.40696886 256.72249681 1677.97534475 C256.67260617 1703.26359251 256.62268809 1728.55184022 256.57275391 1753.84008789 C256.52423742 1778.41040036 256.47573335 1802.98071286 256.42724609 1827.55102539 C256.42500501 1828.68666304 256.42500501 1828.68666304 256.42271865 1829.84524287 C256.40771502 1837.44812777 256.39271164 1845.05101268 256.37770845 1852.65389758 C256.34714401 1868.14245943 256.31657789 1883.63102128 256.28601074 1899.11958313 C256.28460525 1899.83175414 256.28319976 1900.54392516 256.28175168 1901.27767711 C256.18786269 1948.8517848 256.09393428 1996.4258924 256 2044 C255.67 2044 255.34 2044 255 2044 C255 1876.36 255 1708.72 255 1536 C171.18 1536 87.36 1536 1 1536 C1 1703.97 1 1871.94 1 2045 C0.67 2045 0.34 2045 0 2045 C0 1370.15 0 695.3 0 0 Z " fill="#021B88" transform="translate(0,0)"/>
<path d="M0 0 C0.66 0.33 1.32 0.66 2 1 C2.33 169.3 2.66 337.6 3 511 C86.49 511 169.98 511 256 511 C256 511.33 256 511.66 256 512 C130.27 512.495 130.27 512.495 2 513 C1.67 680.64 1.34 848.28 1 1021 C0.67 1021 0.34 1021 0 1021 C0 853.03 0 685.06 0 512 C-83.49 512 -166.98 512 -253 512 C-253 679.97 -253 847.94 -253 1021 C-253.99 1021.33 -254.98 1021.66 -256 1022 C-256.03125884 948.52099528 -256.05094389 875.0419888 -256.06185675 801.56297845 C-256.06228293 798.69415718 -256.06271696 795.82533592 -256.06315851 792.95651466 C-256.07449249 719.24075309 -256.07580972 645.52498512 -255.50451323 225.06176934 C-255.49847632 222.22033852 -255.49245239 219.37890767 -255.48642803 216.53747682 C-255.33407937 144.69162871 -255.17273124 72.84580216 -255 1 C-254.67 1 -254.34 1 -254 1 C-253.67 168.64 -253.34 336.28 -253 509 C-127.765 509.495 -127.765 509.495 0 510 C0 341.7 0 173.4 0 0 Z M-258 1022 C-256 1023 -256 1023 -256 1023 Z " fill="#0E23A0" transform="translate(1789,2560)"/>
<path d="M0 0 C0.66 0.33 1.32 0.66 2 1 C2.33 169.3 2.66 337.6 3 511 C86.49 511 169.98 511 256 511 C256 511.33 256 511.66 256 512 C172.18 512.33 88.36 512.66 2 513 C1.67 680.64 1.34 848.28 1 1021 C0.67 1021 0.34 1021 0 1021 C0 853.03 0 685.06 0 512 C-83.49 512 -166.98 512 -253 512 C-252.96519531 548.72023438 -252.93039062 585.44046875 -252.89453125 623.2734375 C-252.88012661 645.07732586 -252.86592437 666.88121052 -252.85550511 688.68510056 C-252.84938121 701.46802968 -252.84311729 714.25095872 -252.83642202 727.03388757 C-252.8356125 728.58016767 -252.83480739 730.12644777 -252.83400673 731.67272788 C-252.82119604 756.34303356 -252.79867714 781.01331867 -252.77110834 805.6836119 C-252.74283603 831.02935493 -252.72434959 856.37508658 -252.71825503 881.72084512 C-252.71739051 885.29709812 -252.7164136 888.87335108 -252.71536827 892.44960403 C-252.715166 893.15349278 -252.71496373 893.85738153 -252.71475533 894.58260024 C-252.71120403 905.9336246 -252.69727334 917.28461386 -252.6795039 928.63562387 C-252.66187886 940.03489912 -252.65533047 951.43412882 -252.65949587 962.83342098 C-252.66142626 969.01482262 -252.65837085 975.19612087 -252.64238358 981.37750435 C-252.62787622 987.02762225 -252.62698747 992.67756639 -252.63730332 998.32769199 C-252.63857987 1000.38020738 -252.63469703 1002.43273324 -252.62535045 1004.48522775 C-252.61344762 1007.25859035 -252.61971556 1010.03131163 -252.63085651 1012.8046627 C-252.62297547 1013.61602051 -252.61509443 1014.42737831 -252.60697457 1015.26332271 C-252.62740451 1017.48788011 -252.62740451 1017.48788011 -253 1021 C-256.11524966 1023.07683311 -256.77458217 1023.249603 -260.30472088 1023.24609566 C-261.18850971 1023.25007775 -262.07229854 1023.25405985 -262.98286885 1023.25816262 C-263.9546493 1023.25233693 -264.92642974 1023.24651125 -265.92765808 1023.24050903 C-266.95927655 1023.24221788 -267.99089502 1023.24392673 -269.05377465 1023.24568737 C-272.52704893 1023.24899413 -276.00013205 1023.23795898 -279.47338867 1023.22705078 C-281.95655818 1023.22648692 -284.43972802 1023.22680273 -286.92289734 1023.22793579 C-292.2774777 1023.22839193 -297.63199801 1023.22270163 -302.98656273 1023.21146011 C-310.72838818 1023.19521729 -318.47019005 1023.18999836 -326.21203069 1023.18748413 C-338.77214514 1023.18310511 -351.33223363 1023.16979041 -363.89233398 1023.15087891 C-376.0944811 1023.13252545 -388.29662117 1023.11836633 -400.4987793 1023.10986328 C-401.62668137 1023.10907511 -401.62668137 1023.10907511 -402.77736934 1023.10827102 C-406.54954335 1023.10566097 -410.32171741 1023.10313355 -414.0938915 1023.10064721 C-445.39594654 1023.07990827 -476.69796933 1023.04452862 -508 1023 C-508.33 1022.34 -508.66 1021.68 -509 1021 C-425.51 1021 -342.02 1021 -256 1021 C-256.01160156 984.27976562 -256.02320313 947.55953125 -256.03515625 909.7265625 C-256.0399578 887.92267474 -256.04469188 866.11878739 -256.04816496 844.31489944 C-256.05020626 831.53197043 -256.05229424 818.74904142 -256.05452599 805.96611243 C-256.05479583 804.41983233 -256.0550642 802.87355222 -256.05533109 801.32727212 C-256.05960132 776.65697622 -256.06710762 751.98668261 -256.07629722 727.3163881 C-256.08572132 701.97064385 -256.09188347 676.62490086 -256.09391499 651.27915488 C-256.09420316 647.70290191 -256.0945288 644.12664894 -256.09487724 640.55039597 C-256.09497838 639.49456284 -256.09497838 639.49456284 -256.09508156 638.41739976 C-256.09626532 627.06639005 -256.10090889 615.71538424 -256.10683203 604.36437613 C-256.11270704 592.96510936 -256.11488984 581.56584766 -256.11350138 570.16657902 C-256.11285792 563.9852134 -256.1138764 557.80385926 -256.11920547 551.62249565 C-256.12404122 545.97242695 -256.12433748 540.32237756 -256.12089889 534.67230801 C-256.12047338 532.61979571 -256.12176763 530.56728224 -256.12488318 528.51477225 C-256.12885052 525.74160308 -256.12676123 522.96850518 -256.12304783 520.1953373 C-256.12698835 518.97830059 -256.12698835 518.97830059 -256.13100848 517.73667729 C-256.1141458 512.2282916 -256.1141458 512.2282916 -255 510 C-170.85 510 -86.7 510 0 510 C0 341.7 0 173.4 0 0 Z " fill="#0F23A1" transform="translate(766,2560)"/>
<path d="M0 0 C84.48 0 168.96 0 256 0 C256 168.3 256 336.6 256 510 C255.67 510 255.34 510 255 510 C255 342.03 255 174.06 255 1 C171.51 1 88.02 1 2 1 C2 169.3 2 337.6 2 511 C85.49 511 168.98 511 255 511 C255 511.66 255 512.32 255 513 C171.51 513 88.02 513 2 513 C2 680.97 2 848.94 2 1022 C1.01 1022 0.02 1022 -1 1022 C-1 854.03 -1 686.06 -1 513 C-84.49 513 -167.98 513 -254 513 C-254 512.67 -254 512.34 -254 512 C-170.51 512 -87.02 512 -1 512 C-0.67 343.04 -0.34 174.08 0 0 Z " fill="#1224A6" transform="translate(511,0)"/>
<path d="M0 0 C83.82 0 167.64 0 254 0 C254 0.33 254 0.66 254 1 C170.51 1 87.02 1 1 1 C1 169.3 1 337.6 1 511 C84.82 511 168.64 511 255 511 C255 343.03 255 175.06 255 2 C255.33 2 255.66 2 256 2 C256.09535458 50.48414608 256.19070215 98.96829218 256.28601074 147.45243835 C256.28742048 148.16958059 256.28883022 148.88672283 256.29028267 149.62559665 C256.3209172 165.20959096 256.35155041 180.79358527 256.38218227 196.37757959 C256.3972033 204.01954199 256.41222462 211.66150439 256.42724609 219.3034668 C256.42948836 220.44419078 256.42948836 220.44419078 256.43177592 221.60795969 C256.48026167 246.27441138 256.52876656 270.94086304 256.57728135 295.60731468 C256.62712054 320.94718645 256.67694049 346.28705827 256.7267361 371.62693013 C256.73376321 375.20286235 256.74079053 378.77879457 256.74781799 382.35472679 C256.74920114 383.05854812 256.75058429 383.76236944 256.75200936 384.48751869 C256.77430924 395.83460977 256.79662952 407.18170081 256.81895734 418.52879184 C256.84138303 429.92583438 256.86378693 441.32287697 256.88616979 452.7199196 C256.89830639 458.89937939 256.91045277 465.07883916 256.92262459 471.25829887 C256.93375232 476.9077969 256.94485324 482.55729497 256.9559322 488.20679309 C256.95995952 490.25797694 256.96399697 492.30916076 256.96804518 494.36034457 C256.97351802 497.13410128 256.97895507 499.90785807 256.98438263 502.68161488 C256.98678915 503.89471106 256.98678915 503.89471106 256.98924428 505.13231423 C257.00037588 510.85065409 256.99577174 516.56881814 256.98438263 522.28715038 C256.98185007 523.57635087 256.98185007 523.57635087 256.97926635 524.89159581 C256.97355112 527.797212 256.96779337 530.70282811 256.96203613 533.60844421 C256.9579088 535.70230716 256.95378407 537.79617011 256.94966173 539.89003307 C256.93828681 545.66385298 256.92687481 551.43767283 256.91545701 557.21149266 C256.90316563 563.43031188 256.89090827 569.64913116 256.87864685 575.86795044 C256.85738528 586.64914135 256.83610219 597.43033222 256.81480408 608.21152306 C256.7924618 619.52131841 256.77013172 630.83111379 256.74781799 642.14090919 C256.74643165 642.84358079 256.7450453 643.54625239 256.74361694 644.27021707 C256.73657672 647.83859296 256.72953672 651.40696886 256.72249681 654.97534475 C256.67260617 680.26359251 256.62268809 705.55184022 256.57275391 730.84008789 C256.52423742 755.41040036 256.47573335 779.98071286 256.42724609 804.55102539 C256.42500501 805.68666304 256.42500501 805.68666304 256.42271865 806.84524287 C256.40771502 814.44812777 256.39271164 822.05101268 256.37770845 829.65389758 C256.34714401 845.14245943 256.31657789 860.63102128 256.28601074 876.11958313 C256.28460525 876.83175414 256.28319976 877.54392516 256.28175168 878.27767711 C256.18786269 925.8517848 256.09393428 973.4258924 256 1021 C255.67 1021 255.34 1021 255 1021 C255 853.36 255 685.72 255 513 C171.18 513 87.36 513 1 513 C1 680.97 1 848.94 1 1022 C0.67 1022 0.34 1022 0 1022 C0 684.74 0 347.48 0 0 Z " fill="#011A85" transform="translate(0,3070)"/>
<path d="M0 0 C84.15 0 168.3 0 255 0 C255 0.33 255 0.66 255 1 C171.51 1 88.02 1 2 1 C2 169.3 2 337.6 2 511 C85.49 511 168.98 511 255 511 C255 511.99 255 512.98 255 514 C171.51 514 88.02 514 2 514 C2 681.97 2 849.94 2 1023 C1.67 1023 1.34 1023 1 1023 C1 855.03 1 687.06 1 514 C-83.15 514 -167.3 514 -254 514 C-254 513.67 -254 513.34 -254 513 C-170.51 513 -87.02 513 -1 513 C-0.67 343.71 -0.34 174.42 0 0 Z " fill="#0E229F" transform="translate(255,2558)"/>
<path d="M0 0 C83.82 0 167.64 0 254 0 C254 0.33 254 0.66 254 1 C170.51 1 87.02 1 1 1 C1.33 169.96 1.66 338.92 2 513 C1.01 513 0.02 513 -1 513 C-0.67 343.71 -0.34 174.42 0 0 Z " fill="#001A83" transform="translate(1790,0)"/>
<path d="M0 0 C0.76817423 0.00341748 1.53634846 0.00683497 2.32780069 0.01035601 C3.65273589 0.01259453 3.65273589 0.01259453 5.00443745 0.01487827 C6.47668306 0.02508396 6.47668306 0.02508396 7.97867101 0.03549582 C9.01266419 0.03872495 10.04665736 0.04195407 11.11198366 0.04528105 C14.60525627 0.05742399 18.09845284 0.07678249 21.59169286 0.09605795 C24.08441779 0.10619356 26.57714455 0.115888 29.0698728 0.12517172 C34.45121886 0.14621264 39.83253767 0.1703454 45.21385664 0.19725233 C52.99442474 0.23615037 60.77500874 0.26953126 68.55560785 0.30154759 C81.17784385 0.35363739 93.80005561 0.41021493 106.42225927 0.46959311 C118.68657258 0.52727811 130.95089243 0.58286296 143.21522802 0.63560873 C144.34839876 0.64048331 144.34839876 0.64048331 145.50446183 0.64545637 C149.29416108 0.66174557 153.0838605 0.67799333 156.87356001 0.69422048 C188.3335895 0.82898315 219.79358187 0.97109428 251.2535581 1.11778647 C251.2535581 1.44778647 251.2535581 1.77778647 251.2535581 2.11778647 C168.4235581 2.44778647 85.5935581 2.77778647 0.2535581 3.11778647 C-0.0764419 170.42778647 -0.4064419 337.73778647 -0.7464419 510.11778647 C-1.0764419 510.11778647 -1.4064419 510.11778647 -1.7464419 510.11778647 C-1.85889438 461.60541829 -1.97015657 413.09304755 -2.07479578 364.58066183 C-2.07711747 363.50453431 -2.07711747 363.50453431 -2.07948607 362.40666683 C-2.11311226 346.8171371 -2.1465157 331.22760691 -2.1796895 315.63807622 C-2.19595809 307.99353619 -2.21227592 300.34899626 -2.22861964 292.70445639 C-2.23024524 291.94371222 -2.23187084 291.18296805 -2.2335457 290.39917102 C-2.28630738 265.71873321 -2.34232439 241.03830408 -2.40002047 216.35787735 C-2.45926846 191.00626749 -2.51525044 165.65465249 -2.56709299 140.30302636 C-2.5744084 136.72645257 -2.58176135 133.14987886 -2.58913714 129.57330519 C-2.59058771 128.86934902 -2.59203828 128.16539285 -2.59353281 127.44010467 C-2.61702751 116.08517275 -2.64398925 104.73025155 -2.67223128 93.37533056 C-2.70051571 81.97384786 -2.7251049 70.57236299 -2.74611307 59.17086411 C-2.75761596 52.9875921 -2.77078753 46.80433489 -2.78827196 40.62107664 C-2.80421496 34.97045185 -2.81561932 29.31983752 -2.823273 23.66919558 C-2.82688133 21.61535173 -2.83221627 19.5615101 -2.83937026 17.50767554 C-2.84878587 14.73512697 -2.85215016 11.9626383 -2.85387236 9.19007593 C-2.85810372 8.37609112 -2.86233508 7.5621063 -2.86669466 6.72345528 C-2.85943217 0.19285063 -2.85943217 0.19285063 0 0 Z " fill="#001A83" transform="translate(1535.7464419007301,3580.8822135329247)"/>
<path d="M0 0 C0.76817423 0.00341748 1.53634846 0.00683497 2.32780069 0.01035601 C3.65273589 0.01259453 3.65273589 0.01259453 5.00443745 0.01487827 C6.47668306 0.02508396 6.47668306 0.02508396 7.97867101 0.03549582 C9.01266419 0.03872495 10.04665736 0.04195407 11.11198366 0.04528105 C14.60525627 0.05742399 18.09845284 0.07678249 21.59169286 0.09605795 C24.08441779 0.10619356 26.57714455 0.115888 29.0698728 0.12517172 C34.45121886 0.14621264 39.83253767 0.1703454 45.21385664 0.19725233 C52.99442474 0.23615037 60.77500874 0.26953126 68.55560785 0.30154759 C81.17784385 0.35363739 93.80005561 0.41021493 106.42225927 0.46959311 C118.68657258 0.52727811 130.95089243 0.58286296 143.21522802 0.63560873 C144.34839876 0.64048331 144.34839876 0.64048331 145.50446183 0.64545637 C149.29416108 0.66174557 153.0838605 0.67799333 156.87356001 0.69422048 C188.3335895 0.82898315 219.79358187 0.97109428 251.2535581 1.11778647 C251.2535581 1.44778647 251.2535581 1.77778647 251.2535581 2.11778647 C168.4235581 2.44778647 85.5935581 2.77778647 0.2535581 3.11778647 C-0.0764419 170.42778647 -0.4064419 337.73778647 -0.7464419 510.11778647 C-1.0764419 510.11778647 -1.4064419 510.11778647 -1.7464419 510.11778647 C-1.85889438 461.60541829 -1.97015657 413.09304755 -2.07479578 364.58066183 C-2.07711747 363.50453431 -2.07711747 363.50453431 -2.07948607 362.40666683 C-2.11311226 346.8171371 -2.1465157 331.22760691 -2.1796895 315.63807622 C-2.19595809 307.99353619 -2.21227592 300.34899626 -2.22861964 292.70445639 C-2.23024524 291.94371222 -2.23187084 291.18296805 -2.2335457 290.39917102 C-2.28630738 265.71873321 -2.34232439 241.03830408 -2.40002047 216.35787735 C-2.45926846 191.00626749 -2.51525044 165.65465249 -2.56709299 140.30302636 C-2.5744084 136.72645257 -2.58176135 133.14987886 -2.58913714 129.57330519 C-2.59058771 128.86934902 -2.59203828 128.16539285 -2.59353281 127.44010467 C-2.61702751 116.08517275 -2.64398925 104.73025155 -2.67223128 93.37533056 C-2.70051571 81.97384786 -2.7251049 70.57236299 -2.74611307 59.17086411 C-2.75761596 52.9875921 -2.77078753 46.80433489 -2.78827196 40.62107664 C-2.80421496 34.97045185 -2.81561932 29.31983752 -2.823273 23.66919558 C-2.82688133 21.61535173 -2.83221627 19.5615101 -2.83937026 17.50767554 C-2.84878587 14.73512697 -2.85215016 11.9626383 -2.85387236 9.19007593 C-2.85810372 8.37609112 -2.86233508 7.5621063 -2.86669466 6.72345528 C-2.85943217 0.19285063 -2.85943217 0.19285063 0 0 Z " fill="#001A83" transform="translate(512.7464419007301,3580.8822135329247)"/>
<path d="M0 0 C0.76817423 0.00341748 1.53634846 0.00683497 2.32780069 0.01035601 C3.65273589 0.01259453 3.65273589 0.01259453 5.00443745 0.01487827 C6.47668306 0.02508396 6.47668306 0.02508396 7.97867101 0.03549582 C9.01266419 0.03872495 10.04665736 0.04195407 11.11198366 0.04528105 C14.60525627 0.05742399 18.09845284 0.07678249 21.59169286 0.09605795 C24.08441779 0.10619356 26.57714455 0.115888 29.0698728 0.12517172 C34.45121886 0.14621264 39.83253767 0.1703454 45.21385664 0.19725233 C52.99442474 0.23615037 60.77500874 0.26953126 68.55560785 0.30154759 C81.17784385 0.35363739 93.80005561 0.41021493 106.42225927 0.46959311 C118.68657258 0.52727811 130.95089243 0.58286296 143.21522802 0.63560873 C144.34839876 0.64048331 144.34839876 0.64048331 145.50446183 0.64545637 C149.29416108 0.66174557 153.0838605 0.67799333 156.87356001 0.69422048 C188.3335895 0.82898315 219.79358187 0.97109428 251.2535581 1.11778647 C251.2535581 1.44778647 251.2535581 1.77778647 251.2535581 2.11778647 C168.4235581 2.44778647 85.5935581 2.77778647 0.2535581 3.11778647 C-0.0764419 170.42778647 -0.4064419 337.73778647 -0.7464419 510.11778647 C-1.0764419 510.11778647 -1.4064419 510.11778647 -1.7464419 510.11778647 C-1.85889438 461.60541829 -1.97015657 413.09304755 -2.07479578 364.58066183 C-2.07711747 363.50453431 -2.07711747 363.50453431 -2.07948607 362.40666683 C-2.11311226 346.8171371 -2.1465157 331.22760691 -2.1796895 315.63807622 C-2.19595809 307.99353619 -2.21227592 300.34899626 -2.22861964 292.70445639 C-2.23024524 291.94371222 -2.23187084 291.18296805 -2.2335457 290.39917102 C-2.28630738 265.71873321 -2.34232439 241.03830408 -2.40002047 216.35787735 C-2.45926846 191.00626749 -2.51525044 165.65465249 -2.56709299 140.30302636 C-2.5744084 136.72645257 -2.58176135 133.14987886 -2.58913714 129.57330519 C-2.59058771 128.86934902 -2.59203828 128.16539285 -2.59353281 127.44010467 C-2.61702751 116.08517275 -2.64398925 104.73025155 -2.67223128 93.37533056 C-2.70051571 81.97384786 -2.7251049 70.57236299 -2.74611307 59.17086411 C-2.75761596 52.9875921 -2.77078753 46.80433489 -2.78827196 40.62107664 C-2.80421496 34.97045185 -2.81561932 29.31983752 -2.823273 23.66919558 C-2.82688133 21.61535173 -2.83221627 19.5615101 -2.83937026 17.50767554 C-2.84878587 14.73512697 -2.85215016 11.9626383 -2.85387236 9.19007593 C-2.85810372 8.37609112 -2.86233508 7.5621063 -2.86669466 6.72345528 C-2.85943217 0.19285063 -2.85943217 0.19285063 0 0 Z " fill="#001A83" transform="translate(1535.7464419007301,1533.8822135329247)"/>
<path d="M0 0 C0.76817423 0.00341748 1.53634846 0.00683497 2.32780069 0.01035601 C3.65273589 0.01259453 3.65273589 0.01259453 5.00443745 0.01487827 C6.47668306 0.02508396 6.47668306 0.02508396 7.97867101 0.03549582 C9.01266419 0.03872495 10.04665736 0.04195407 11.11198366 0.04528105 C14.60525627 0.05742399 18.09845284 0.07678249 21.59169286 0.09605795 C24.08441779 0.10619356 26.57714455 0.115888 29.0698728 0.12517172 C34.45121886 0.14621264 39.83253767 0.1703454 45.21385664 0.19725233 C52.99442474 0.23615037 60.77500874 0.26953126 68.55560785 0.30154759 C81.17784385 0.35363739 93.80005561 0.41021493 106.42225927 0.46959311 C118.68657258 0.52727811 130.95089243 0.58286296 143.21522802 0.63560873 C144.34839876 0.64048331 144.34839876 0.64048331 145.50446183 0.64545637 C149.29416108 0.66174557 153.0838605 0.67799333 156.87356001 0.69422048 C188.3335895 0.82898315 219.79358187 0.97109428 251.2535581 1.11778647 C251.2535581 1.44778647 251.2535581 1.77778647 251.2535581 2.11778647 C168.4235581 2.44778647 85.5935581 2.77778647 0.2535581 3.11778647 C-0.0764419 170.42778647 -0.4064419 337.73778647 -0.7464419 510.11778647 C-1.0764419 510.11778647 -1.4064419 510.11778647 -1.7464419 510.11778647 C-1.85889438 461.60541829 -1.97015657 413.09304755 -2.07479578 364.58066183 C-2.07711747 363.50453431 -2.07711747 363.50453431 -2.07948607 362.40666683 C-2.11311226 346.8171371 -2.1465157 331.22760691 -2.1796895 315.63807622 C-2.19595809 307.99353619 -2.21227592 300.34899626 -2.22861964 292.70445639 C-2.23024524 291.94371222 -2.23187084 291.18296805 -2.2335457 290.39917102 C-2.28630738 265.71873321 -2.34232439 241.03830408 -2.40002047 216.35787735 C-2.45926846 191.00626749 -2.51525044 165.65465249 -2.56709299 140.30302636 C-2.5744084 136.72645257 -2.58176135 133.14987886 -2.58913714 129.57330519 C-2.59058771 128.86934902 -2.59203828 128.16539285 -2.59353281 127.44010467 C-2.61702751 116.08517275 -2.64398925 104.73025155 -2.67223128 93.37533056 C-2.70051571 81.97384786 -2.7251049 70.57236299 -2.74611307 59.17086411 C-2.75761596 52.9875921 -2.77078753 46.80433489 -2.78827196 40.62107664 C-2.80421496 34.97045185 -2.81561932 29.31983752 -2.823273 23.66919558 C-2.82688133 21.61535173 -2.83221627 19.5615101 -2.83937026 17.50767554 C-2.84878587 14.73512697 -2.85215016 11.9626383 -2.85387236 9.19007593 C-2.85810372 8.37609112 -2.86233508 7.5621063 -2.86669466 6.72345528 C-2.85943217 0.19285063 -2.85943217 0.19285063 0 0 Z " fill="#001A83" transform="translate(512.7464419007301,1533.8822135329247)"/>
</svg>
